<svg id="Layer_1" xmlns="http://www.w3.org/2000/svg" xmlns:xlink="http://www.w3.org/1999/xlink" viewBox="0 0 862 454.3"><style>.st0{clip-path:url(#SVGID_2_);fill:#414042}</style><defs><path id="SVGID_1_" d="M0 0h862v454.3H0z"/></defs><clipPath id="SVGID_2_"><use xlink:href="#SVGID_1_" overflow="visible"/></clipPath><path class="st0" d="M390 188.8c4.6 0 8-3.4 8-7.9V103c0-4.6-3.5-8.2-8-8.2h-92.7c-4.6 0-8.2 3.6-8.2 8.2v77.9c0 4.6 3.6 7.9 8.2 7.9H390m4-8c0 2.3-1.8 3.9-4 3.9h-92.7c-2.3 0-4.2-1.7-4.2-3.9v-77.9c0-2.3 1.9-4.2 4.2-4.2h1.3l36.4 59.9c.4.6 1.1 1 1.8 1 .4 0 .7-.1 1.1-.3 1-.6 1.3-1.9.7-2.9l-35.1-57.7h12l51 78.8c.4.6 1.1 1 1.7 1 .4 0 .8-.1 1.1-.3 1-.6 1.2-1.9.6-2.9l-49.6-76.6h15.2l17.7 25.5c.4.6 1.1.9 1.7.9.4 0 .8-.1 1.2-.4.9-.7 1.2-2 .5-2.9l-16-23.1H390c2.3 0 4 1.9 4 4.2v77.9zm169.8 2.6c.8-2 .8-4.3 0-6.4l-29.1-76.6c-1.3-3.4-4.7-5.7-8.4-5.7h-86.7c-4.9 0-8.6 3.9-8.6 8.8v76.6c0 4.9 3.7 8.6 8.6 8.6H534v5.6c0 1.1.4 2.4 1.6 2.4h11.5c1.1 0 1.9-1.2 1.9-2.4v-5.6h6.5c2.2 0 4.3-.6 6-2.1v.2l4.3 3.4c.4.3.8.5 1.3.5.6 0 1.2-.3 1.6-.8.7-.9.6-2.2-.3-2.9l-4.6-3.6m-14.8 1.4V177l9 7.1h.1c-.8.5-1.7.7-2.6.7H549zm-11 4.3v-36.4h7v40h-7v-3.6zm10.8-40.3H534v36h-94.4c-2.6 0-4.6-1.9-4.6-4.6v-76.6c0-2.6 2-4.8 4.6-4.8h8.3l47.9 78.8c.4.6 1.1 1 1.8 1 .4 0 .7-.1 1.1-.3 1-.6 1.3-1.9.7-2.9l-46.6-76.6h12l39.7 62.2c.4.6 1.1 1 1.8 1 .4 0 .8-.1 1.1-.3 1-.6 1.3-1.9.6-2.9l-38.3-59.9H485l14.5 22.6c.4.6 1.1 1 1.8 1 .4 0 .8-.1 1.1-.3 1-.6 1.2-1.9.6-2.9l-13.1-20.4h36.5c2 0 3.8 1.1 4.5 3l17.9 46.9zm11.1 29.7c.3.7.3 1.4.3 2.1l-11.1-8.9V150l10.8 28.5M468 231.8h-37v12h37v-12zm-4 8h-29v-3h29v3zm-175 4h37v-12h-37v12zm4-7h29v3h-29v-3zm457-3.1c0 1.1.9 2.1 2.1 2.1h21.8c1.1 0 2.1-.9 2.1-2.1v-11.8c0-1.1-.9-2.1-2.1-2.1h-21.8c-1.1 0-2.1.9-2.1 2.1v11.8zm4-9.9h18v8h-18v-8zm-92 119.9c-3.1 5.4-5 11.3-5.7 17.5-.2 1.7-.3 3.5-.3 5.4 0 11.8 4.4 23 12.3 31.6 4.2 4.6 9.2 8.2 14.9 10.8 6.1 2.8 12.6 4.3 19.5 4.3 6.8 0 13.3-1.4 19.4-4.2h.1c1.4-.6 2.8-1.4 4.1-2.1 2.6-1.5 5.1-3.4 7.4-5.4 1.2-1 2.3-2.1 3.3-3.3 8-8.6 12.3-19.9 12.3-31.6 0-1.9-.1-3.7-.3-5.4-.7-6.2-2.6-12-5.7-17.5-2.3-4.1-5.2-7.8-8.6-11.1-6.3-6-14.2-10.1-22.8-11.8h-.1c-.4-.1-.8-.1-1.1-.2-5.7-1-11.5-.9-17.2.2-8.6 1.8-16.5 5.8-22.9 11.9-3.4 3.1-6.3 6.8-8.6 10.9m-.1 10.8c.2-.7.4-1.4.7-2 .1-.3.2-.7.4-1 .1-.3.2-.6.4-1 .1-.3.3-.6.4-1 .1-.3.3-.6.4-1 .1-.3.3-.6.5-1 .1-.1.1-.3.2-.4l22.8 7.4-.1.1c-.2.3-.5.5-.7.9-.1.1-.1.2-.2.3-.1.1-.2.2-.3.4l-.1.2c-.2.3-.3.5-.5.8-.1.2-.2.3-.2.5-.3.4-.5.9-.6 1.3-.5 1.2-.8 2.3-1.1 3.4-.1.4-.2.8-.2 1.2-.2.9-.3 1.9-.3 3v.8l-22.8-7.4c.1-.5.2-1 .3-1.4.1-.4.2-.9.3-1.3.1-.3.1-.5.2-.8.1-.4.2-.8.3-1.1 0-.3.1-.6.2-.9m37.4 26.8c-.8-.1-1.6-.4-2.3-.7-.2-.1-.3-.1-.4-.2l-.2-.1c-.3-.1-.6-.3-.9-.5-.4-.2-.7-.4-.9-.5l-.1-.1c-.1-.1-.2-.1-.3-.2l-.6-.4c-.1-.1-.3-.2-.4-.3l-.2-.2c-.2-.2-.4-.4-.7-.6l-.6-.6c-.2-.2-.3-.4-.5-.6-.7-.8-1.3-1.6-1.8-2.5-.2-.4-.4-.8-.5-1.1l-.1-.2c-.2-.4-.4-.9-.5-1.4 0-.1-.1-.3-.1-.4-.1-.2-.1-.5-.2-.7v-.2c0-.1-.1-.4-.1-.5v-.3c-.1-.2-.1-.4-.1-.6v-1.9c0-.8.1-1.6.2-2.3v-.1c0-.3.1-.6.2-.9.2-.9.5-1.8.8-2.6.1-.3.3-.6.5-.9l.2-.4c.1-.2.2-.3.3-.5l.3-.5s0-.1.1-.1l.1-.2c.1-.2.2-.3.3-.5l.1-.1c.1-.2.3-.3.4-.5l.1-.1c.5-.6 1-1.1 1.5-1.5.1-.1.3-.2.4-.3.1 0 .1-.1.2-.2l.1-.1.2-.2c.1-.1.3-.2.4-.3l.7-.4 1.3-.7.5-.3c.1 0 .1 0 .1-.1.4-.2.8-.3 1.4-.5l.2-.1c.1 0 .2-.1.3-.1l.3-.1c.2-.1.5-.1.8-.2h.2c.5-.1 1-.2 1.4-.2.5-.1.9-.1 1.5-.1s1 0 1.4.1c.5 0 1 .1 1.5.2h.2c.3.1.6.1.8.2l.3.1c.1 0 .2.1.3.1l.2.1c.5.2.9.3 1.3.5.1 0 .1.1.2.1l.5.3 1.3.7.7.4s.1 0 .1.1c.1 0 .1 0 .1.1.1 0 .1.1.2.1l.2.2.1.1.2.2c.1.1.3.2.4.3.5.4 1 .9 1.5 1.5l.1.1c.1.2.3.3.4.5l.3.4c.1.1.2.2.2.3l.4.6c.1.2.3.4.4.6l.2.4c.2.3.3.6.5 1 .3.8.6 1.7.8 2.5.1.4.2.6.2.9v.1c.1.7.2 1.5.2 2.3 0 .4 0 .7-.1 1.1v.8c0 .2 0 .4-.1.6v.3c0 .1-.1.4-.1.5l-.1.5c0 .1-.1.3-.1.4 0 .2-.1.4-.1.5-.1.2-.2.4-.2.7l-.3.6v.1l-.1.3c-.1.3-.3.6-.4.9-.5 1-1.1 1.8-1.8 2.6-.2.3-.4.5-.6.6l-.6.6c-.2.2-.4.5-.7.6l-.2.2c-.1.1-.2.3-.4.3l-.6.3c-.1.1-.2.1-.3.2l-.1.1c-.3.2-.6.3-.9.5-.4.2-.7.4-1 .5l-.2.1c-.1.1-.2.1-.3.1-.8.3-1.5.6-2.3.7h-.1c-.2.1-.4.1-.7.1h-.5c-.2 0-.5.1-.8.1h-2.8c-.2 0-.5-.1-.8-.1l-.4-.1c-.5.2-.7.2-1.1.1zm-32.4-37.7c1.8-2.9 4.1-5.5 6.6-7.9 5.2-4.9 11.4-8.4 18.4-10.2v25.3c0 .1-.4.2-.5.3-.1.1-.4.2-.5.3l-24-7.8m41.9-19.1c.1 0 .2 0 .2.1v24c0-.1-.2-.1-.5-.2-.2-.1-.3-.2-.6-.3-.4-.1-.8-.2-1.3-.3-.1 0-.3-.1-.5-.1-.6-.1-1.1-.2-1.7-.2-.5-.1-1.1-.1-1.8-.1s-1.3 0-1.9.1c-.5 0-1 .1-1.6.2-.1 0-.3 0-.5.1-.5.1-.9.2-1.2.3-.3.1-.6.2-.8.3-.2.1-.7.1-.7.2v-24h.1c.5-.1 1-.1 1.5-.2s1.1-.1 1.7-.2c.4 0 .8-.1 1.3-.1h4.2c.4 0 .8.1 1.2.1.5 0 .9.1 1.4.1.6.1 1 .2 1.5.2m23.3 11.2c2.5 2.4 4.6 5 6.5 7.9l-24.1 7.8c-.1-.1-.1-.2-.2-.2l-.2-.2c-.1-.1-.1-.2-.1-.2v-25.3c6 1.8 12.9 5.3 18.1 10.2m12.4 22.8c.1.5.2 1 .3 1.4l-22.8 7.4v-.8c0-1.1-.1-2.1-.3-3 0-.4-.1-.9-.2-1.3-.2-1-.5-2.1-1-3.2-.2-.4-.4-.9-.6-1.3-.1-.1-.1-.3-.2-.4-.1-.3-.3-.5-.5-.8l-.1-.2c-.1-.2-.2-.3-.3-.4-.1-.1-.2-.3-.3-.4-.1-.2-.3-.4-.5-.5 0 0-.1.1-.1 0l22.8-7.2c.7 1 1.3 2.6 1.9 4 .1.3.2.3.3.6.3.8.5 1.5.8 2.3.1.2.1.5.2.7.1 1 .4 2.1.6 3.1m.7 8.1c0 9.9-3.4 19.3-9.6 26.9l-14.8-20.4c.1-.2.2-.4.2-.7 0-.1.1-.2.1-.3v-.1l24-7.8c.1.8.1 1.6.1 2.4m-21.5 37c-.6.3-1.2.6-1.7.9l-14.1-19.4c.7-.2 1.4-.4 2.1-.7.2 0 .3-.1.5-.2.5-.2 1-.4 1.4-.7.3-.2.7-.4 1-.6 0 0 .1-.1.2-.1l.1-.1s.1-.1.2-.1l.3-.2c.4-.3.9-.6 1.3-1 .3-.3.7-.6 1-.9l.6-.6c.3-.3.6-.6.8-.9.5-.5.9-1.1 1.3-1.7l14.1 19.4-1.2 1.2c-.3.3-.7.6-1 .9-.1.1-.3.2-.4.3-.4.3-.7.6-1.1.9-.4.3-.9.7-1.3 1-.5.3-.9.7-1.4 1-.5.3-.9.6-1.4.9-.5.2-.9.4-1.3.7m-21 5.5c-5.4 0-10.5-1-15.4-2.9l14.8-20.4h1.1l14.8 20.4c-4.8 2-10 2.9-15.3 2.9m-28.9-11.3l-1.2-1.2 14.1-19.4c.4.6.8 1.2 1.3 1.8l.8.8.6.6c.3.4.7.7 1 .9.4.4.8.7 1.3 1l.6.4c.1 0 .1.1.2.1.4.2.7.4 1.1.6.4.2.9.5 1.3.7l.6.3c.6.3 1.3.5 2 .7l-14.1 19.4c-.4-.2-.9-.5-1.3-.7-.1-.1-.2-.1-.4-.2-.4-.3-.9-.5-1.3-.8-.4-.3-.9-.5-1.3-.8-.5-.3-1-.7-1.5-1-.5-.3-.9-.7-1.3-1-.4-.3-.8-.6-1.1-.9-.1-.1-.3-.2-.4-.3-.3-.3-.6-.7-1-1m-4-4.3c-6.2-7.6-9.6-17-9.6-26.9 0-.8 0-1.6.1-2.4l24 7.8c.1.3.1.5.2.7 0 .1.1.2.1.4l-14.8 20.4m-528-4.8c.3.6.6 1.2 1 1.8 8 14.1 23.2 23.7 40.6 23.7 25.7 0 46.7-20.9 46.7-46.7 0-11.9-4.4-23.1-12.4-31.7-.1-.2-.2-.3-.3-.5-2.1-2.2-4.5-4.3-6.9-6-2.5-1.8-5.2-3.3-8-4.6-.3-.1-.6-.2-.8-.2-5.7-2.4-11.8-3.7-18.2-3.7-6.6 0-13.1 1.4-19 4-.3 0-.7 0-1 .2-5.7 2.6-10.6 6.3-14.8 10.9-.2.3-.4.6-.5.9-7.4 8.5-11.5 19.2-11.5 30.7 0 1.7.1 3.3.3 4.9 0 .2-.1.5 0 .7.6 5.4 2.3 10.7 4.8 15.6m3.7-1.8c-.2-.3-.3-.7-.5-1-1.8-3.6-3-7.6-3.7-11.7l22.7-7.6v.4c0 4.7 1.7 8.9 4.4 12.3l-22.9 7.6m31.2-1.9c2 .8 4.3 1.2 6.6 1.2 2.4 0 4.7-.4 6.8-1.2l.2 24.2c-4.4.7-9 .8-13.4.1l-.2-24.3zm48.6-11.5c-.7 4.5-2 8.8-4 12.8l-23-7.3c2.6-3.3 4.2-7.5 4.2-12v-.7l22.8 7.2m-12.8-37c.2.1.3.3.5.5l-13.8 19.3c-2.5-3.8-6.3-6.6-10.8-7.8l13.7-19.2c3.8 1.8 7.3 4.3 10.4 7.2m-29.2 15.4c.8 0 1.5.1 2.3.2 5 .8 9.2 4 11.3 8.4.6 1.2 1 2.6 1.3 4 .2.8.2 1.7.2 2.6 0 8.3-6.8 15.1-15.1 15.1s-15.1-6.8-15.1-15.1c0-.9.1-1.8.3-2.7 0-.1 0-.1.1-.2.2-.9.5-1.8.8-2.6.1-.2.1-.4.1-.5 2-4.5 6.2-7.9 11.2-8.8.8-.4 1.7-.4 2.6-.4m-29.1-15.4c2.9-2.8 6.1-5.1 9.6-6.9l13.9 18.9c-4.4 1.3-8.2 4.2-10.7 8.1l-14-18.9 1.2-1.2m-13.3 33.4c-.1-.8-.1-1.6-.1-2.5 0-9.9 3.3-19.1 9.4-26.6l14.8 20c-.1.4-.3.8-.4 1.1l-23.7 8m42.5-45c5.2 0 10.2.9 14.9 2.7l-14.4 20.2h-1.6L167.6 328c5-2.1 10.3-3.1 15.8-3.1m32.5 15.2c6.5 7.6 10 17.2 10 27.4v1.8l-24.1-7.6c-.1-.4-.2-.8-.4-1.2l14.5-20.4m3.5 49.9a42.3 42.3 0 0 1-25 18.5l-.2-25.5c.3-.2.6-.4.9-.7l24.3 7.7m-46.7 18.6c-10.4-2.7-19.3-9.3-25-18.1l23.9-8c.2.1.3.2.4.3.2.1.3.2.5.3l.2 25.5M123.6 94.8h-12.8c-4.6 0-8.8 3.6-8.8 8.2v77.9c0 4.6 4.2 7.9 8.8 7.9h151.1c4.6 0 8.1-3.4 8.1-7.9V103c0-4.6-3.5-8.2-8.1-8.2H123.6zm-16.6 8.1c0-2.3 1.5-4.2 3.8-4.2h11.7l16.8 25.4c.4.6 1.1.9 1.7.9.4 0 .8-.1 1.1-.3 1-.6 1.2-1.9.6-2.9l-15.3-23.2h13.8s.1.5.3.8l37 60.9c.4.6 1.1 1 1.8 1 .4 0 .7-.1 1.1-.3 1-.6 1.3-1.9.7-2.9l-36.2-59.5h13.8s.1.5.3.7l46.2 78c.4.7 1.1 1 1.8 1 .4 0 .7-.1 1.1-.3 1-.6 1.3-1.9.7-2.9l-45.4-76.6h13.3s.1.5.3.8l37 60.9c.4.6 1.1 1 1.8 1 .4 0 .7-.1 1.1-.3 1-.6 1.3-1.9.7-2.9l-36.2-59.5H193l8.2 12.3c.4.6 1.1.9 1.7.9.4 0 .8-.1 1.2-.4 1-.6 1.2-1.9.6-2.9l-6.6-10h63.8c2.3 0 4.1 1.9 4.1 4.2v77.9c0 2.3-1.8 3.9-4.1 3.9H110.8c-2.3 0-3.8-1.7-3.8-3.9v-77.6M133.9 417c4.4 4.4 9.4 8.2 14.7 11.3 1 .6 1.3 1.8.8 2.8-.4.7-1.1 1-1.8 1-.4 0-.7-.1-1-.3-5.7-3.3-10.9-7.3-15.6-12-.8-.8-.8-2.1 0-3 .7-.7 2-.7 2.9.2M111 364.4c1.1 0 2 .9 2 2.1v.2c0 15.8 5.1 30.8 14.7 43.4.7.9.5 2.2-.4 2.9-.4.3-.8.4-1.3.4-.6 0-1.2-.3-1.6-.8-10.2-13.3-15.5-29.1-15.5-45.9v-.2c.1-1.2 1-2.1 2.1-2.1m110-59.2c-.3 0-.7-.1-1-.3-10.8-6.3-23.1-9.6-35.7-9.6-3.1 0-6.2.2-9.2.6-1.1.1-2.2-.7-2.3-1.8-.2-1.1.7-2.2 1.8-2.3 3.2-.4 6.5-.6 9.7-.6 13.3 0 26.4 3.5 37.8 10.2 1 .6 1.3 1.8.8 2.8-.5.7-1.2 1-1.9 1m22.8 18.5c-.4.3-.8.4-1.3.4-.6 0-1.2-.3-1.7-.8-1.9-2.5-4-4.8-6.1-7-.8-.8-.8-2.1 0-2.9.8-.8 2.1-.8 3 0 2.3 2.3 4.5 4.8 6.5 7.4.6.9.5 2.2-.4 2.9m-77.9-26c-6 1.6-11.8 4-17.2 7.1-.3.2-.7.3-1 .3-.7 0-1.4-.4-1.8-1-.6-1-.2-2.3.8-2.8 5.7-3.3 11.8-5.8 18.2-7.5 1.1-.3 2.3.4 2.5 1.5.3 1-.4 2.1-1.5 2.4M115.5 348c-.3.9-1.1 1.5-2 1.5-.2 0-.4 0-.5-.1-1.1-.3-1.8-1.4-1.5-2.5.8-3.2 1.9-6.3 3.2-9.3.4-1.1 1.7-1.6 2.7-1.1 1.1.4 1.6 1.7 1.1 2.7-1.2 2.8-2.2 5.8-3 8.8m104.3 80.3c13.5-7.8 24.3-20 30.2-34.4.4-1.1 1.6-1.6 2.7-1.1 1.1.4 1.6 1.7 1.1 2.7-6.3 15.2-17.7 28.1-32 36.4-.3.2-.7.3-1 .3-.7 0-1.4-.4-1.8-1-.5-1-.2-2.3.8-2.9m33.3-43.2c1.6-6 2.4-12.2 2.4-18.4 0-.6.2-1.1.6-1.5.4-.4.9-.6 1.5-.6 1.2 0 2.1.9 2.1 2.1 0 6.6-.9 13.2-2.6 19.5-.3.9-1.1 1.5-2 1.5-.2 0-.4 0-.5-.1-1.2-.2-1.8-1.4-1.5-2.5m-59.6 52.1c3.1-.4 6.2-1 9.1-1.8 1.1-.3 2.3.4 2.5 1.5.3 1.1-.4 2.3-1.5 2.6-3.2.8-6.4 1.5-9.7 1.9h-.3c-1 0-1.9-.8-2.1-1.8.1-1.2.9-2.2 2-2.4m468-12c12.9 8.9 28.3 13.4 44 12.6 1.1-.1 2.1.8 2.2 2 0 1.1-.8 2.1-2 2.2-1.2.1-2.4.1-3.6.1-15.4 0-30.3-4.6-43-13.4-1-.7-1.2-2-.5-2.9.6-1 1.9-1.3 2.9-.6m37.1-129.8c-3.1.1-6.2.5-9.3 1.1h-.4c-1 0-1.9-.7-2-1.7-.2-1.1.5-2.2 1.7-2.4 3.2-.6 6.5-1 9.8-1.1 1.2 0 2.1.8 2.2 2 .1 1.1-.8 2.1-2 2.1m-64.9 44.5c1.1.4 1.6 1.6 1.3 2.7-2.1 5.9-3.4 12-3.9 18.2-.1 1.1-1 1.9-2.1 1.9h-.2c-1.1-.1-2-1.1-1.9-2.2.5-6.6 2-13 4.2-19.2.4-1.2 1.5-1.8 2.6-1.4m81.1 96.8c6.1-1.1 12.1-3 17.7-5.7 1-.5 2.3 0 2.8 1s0 2.3-1 2.8c-6 2.8-12.3 4.9-18.7 6h-.4c-1 0-1.9-.7-2-1.7-.3-1.1.4-2.2 1.6-2.4m-75.5-32.1c1-.6 2.3-.3 2.9.6 1.7 2.6 3.5 5.1 5.5 7.5.7.9.6 2.2-.2 2.9-.4.3-.9.5-1.3.5-.6 0-1.2-.3-1.6-.7-2.1-2.5-4.1-5.2-5.9-7.9-.7-1-.4-2.3.6-2.9m-4.3-72.5c7.6-14.9 19.7-26.5 34.9-33.7l.9 1.9-.9-1.9c1-.5 2.3-.1 2.8 1 .5 1 .1 2.3-1 2.8h-.1c-14.3 6.8-25.7 17.8-32.9 31.8-.4.7-1.1 1.1-1.8 1.1-.3 0-.6-.1-1-.2-1-.5-1.4-1.7-.9-2.8m107.1-26.9c.6-1 2-1.2 2.9-.5 5.4 3.8 10.3 8.2 14.6 13.2.7.9.6 2.2-.3 2.9-.4.3-.9.5-1.3.5-.6 0-1.2-.3-1.6-.7-4-4.8-8.6-9-13.8-12.5-.9-.7-1.1-2-.5-2.9m20.5 20c1-.6 2.3-.3 2.9.6 1.8 2.7 3.3 5.6 4.8 8.6 4.8 10.2 7.3 21 7.3 32.2 0 2.1-.1 4.2-.3 6.3-.1 1.1-1 1.9-2.1 1.9h-.2c-1.1-.1-2-1.1-1.9-2.3.2-2 .3-4 .3-5.9 0-10.6-2.3-20.8-6.9-30.4-1.3-2.8-2.8-5.5-4.5-8.1-.7-1-.4-2.3.6-2.9m6.5 65.4c.4-1.1 1.6-1.6 2.7-1.3 1.1.4 1.6 1.6 1.3 2.7-1.1 3.1-2.4 6.1-3.9 9.1-.4.7-1.1 1.1-1.8 1.1-.3 0-.6-.1-1-.2-1-.5-1.4-1.8-.9-2.8 1.3-2.8 2.6-5.6 3.6-8.6M628.7 234.8h5.6c1.1 0 2.1.9 2.1 2 0 1.2-.9 2-2.1 2h-5.6c-1.2 0-2.1-.8-2.1-2s1-2 2.1-2m16.1 0h52c1.2 0 2.1.9 2.1 2 0 1.2-.9 2-2.1 2h-52c-1.1 0-2.1-.8-2.1-2s.9-2 2.1-2m52-5h-5.6c-1.1 0-2.1-.8-2.1-2 0-1.1.9-2 2.1-2h5.6c1.2 0 2.1.9 2.1 2-.1 1.1-1 2-2.1 2m-68.1-4h52c1.2 0 2.1.9 2.1 2 0 1.2-.9 2-2.1 2h-52c-1.2 0-2.1-.8-2.1-2s1-2 2.1-2"/><path class="st0" d="M2.4 99.8c-1.2 0-2.4.9-2.4 2.1v170.4c0 1.1 1.2 2.5 2.4 2.5H62c1.1 0 2-1.4 2-2.5v-47.5h5v86H38.7c-4 0-7.7 3.1-7.7 7.1v32.8c0 4 3.7 7.2 7.7 7.2h41.2c4 0 7.1-3.2 7.1-7.2v-3.9c3-2.1 6.3-5.9 8.7-9.9h6.8c-3.8 9-5.8 20.2-5.8 31 0 47.8 38.9 86.5 86.7 86.5s86.7-38.8 86.7-86.6c0-10.8-1.9-21.9-5.8-30.9h8.3L279 350v12.2c0 4 2.8 7.5 6.8 7.5h299.6c4 0 7.5-3.6 7.5-7.6v-.9c9-4.3 16-15.5 20.1-24.5h8.4c-3.6 9-5.5 19.7-5.5 30.1 0 47.8 38.9 86.5 86.7 86.5s86.7-38.8 86.7-86.6c0-10.5-1.8-21.1-5.5-30.1h7.5c4.3 5 9.6 8.6 14.6 10.7v3.1c0 4 3.3 7.2 7.3 7.2h41.2c4 0 7.5-3.2 7.5-7.2v-32.8c0-4-3.5-7-7.5-7H829v-32h10.9c1.2 0 2.1-.8 2.1-1.9v-45.2c0-1.1-.9-1.9-2.1-1.9H829v-30.5c0-3-1.7-5.8-3.8-8-2.7-2.7-6.1-4.2-9.8-4.3L587 185.4 542.2 77.6l-.1-.1c-1.5-3.9-3.2-6.8-5.3-9-2.6-2.8-6-4.2-9.7-4.3l-14.1-.1V49.5c4 .2 7.1.4 10.3.6 21.5 1.4 37.3 2.3 45.3 2.3 4.2 0 7.9 0 8.2-2.8.1-.6-.1-1.3-.6-1.9-3-3.5-43.8-9.8-80.5-13.9-41.3-4.6-107-10.2-184.9-10.2h-6.1c-65.3 0-121.8 4-158.3 7.4-6.9-18-22.6-31-28.6-31-2.1 0-3.6.7-4.4 1.9-1.5 2.4.1 5.6 2.7 10.9 2.6 5.2 6.1 12.3 7.5 20.7-22.2 2.4-43.1 5.2-59.1 8-23.5 4-24.8 5.7-25.4 6.4-.4.5-.6 1.2-.5 1.8.3 2.7 3.9 2.7 8.1 2.7 8 0 23.6-1 45.2-2.4 6-.4 13.3-.8 19.3-1.2v9.4L84 57.8c-8.6 0-15 6.8-15 15.2v76.8h-5v-47.9c0-1.1-.9-2.1-2-2.1H2.4m77.5 211H73v-107h206v59.8l25.5 63.3H409v-123h13v124h159v-124h244v107h-11.7c-1.7 0-3.3.5-4.6 1.5-1.6 1.3-2.8 3.3-2.8 5.5v3.6l-25.3-54.8c-5.3-12-17.2-19.9-30.3-19.9H645.6c-14.1 0-26.7 9-31.4 22.3L596 321.6c-1.3 3.6-2.9 7.2-4.8 10.2H292.3l-28.5-65.2c-5.3-12.1-17.2-19.8-30.4-19.8H128.7c-14.1 0-26.7 9.1-31.4 22.4l-14.6 42c-.2-.1-.4-.2-.7-.3v-.1h-2.1zm216.4 31l-2.2-5h294.3c-1.2 1-2.6 3-4 5H296.3zM426 89.8h110l41 106.8v3.2H426v-110zm-143 0h121v110H283v-110zm121 232h-96.8L283 262.1v-58.4h121v118.1zm173 2H426v-120h151v120zM73 80.8h465.9l45.1 107v11.9h-3v-3.9l-.2-.2-41.9-109.8H422v114h-13v-114H279v114H73v-119zm426-4H390V66.5l109 1.6v8.7zm-113 0h-6v-12h6v12zm-10 0H249V64.4l127 1.9v10.5zm-131 0h-6v-14h6v14zm-10 0H126V62.6l109 1.6v12.6zM111 62.4v14.4H73V73c0-6.1 4.8-11.2 10.9-11.2h.2l26.9.6zm5-4.1v-8.5h6v27h-6V58.3zm1.8-53.9c2.9 0 17.1 10.2 23.9 27.3-4.8.5-9.4.9-13.8 1.4-1.5-9.2-5.2-16.6-7.9-22.2-1.2-2.4-2.6-5.2-2.8-6.4.2-.1.4-.1.6-.1m406 41.3c-46.6-3-124.6-7.9-211.8-7.9h-8.9c-48.3 0-99.4 1.5-156.1 4.6-7.3.4-14.4.8-21.1 1.2-12.6.8-24.2 1.5-34.3 2.1-16.1 1-28.8 1.8-37.5 2.2 13.7-2.7 38.5-6.6 72.1-10.2 5.8-.6 12-1.3 18.5-1.9.1 0 .2-.1.4-.1 36.3-3.4 93.4-7.8 159.4-7.8h6.1c119.8 0 217 13.3 250.2 19.9-8.6-.5-21.1-1.1-37-2.1M312 42.2c73.2 0 140 3.5 187 6.4v15.3l-109.2-1.4c0-1.1-.9-1.8-2-1.8h-10.1c-1 0-1.9.7-2.1 1.7l-126.4-1.9c0-1.1-1-1.7-2.1-1.7H237c-1 0-1.8.5-1.9 1.5L126 58.4V48h.4c6.7-.4 13.6-.8 20.9-1.2 56.6-3.1 107.6-4.6 155.8-4.6h8.9m197 21.9v12.7h-6v-27h6v14.3zm24.9 7.6c1.2 1.2 2.3 3.1 3.2 5.1H513v-8.5l14.1.3c2.5 0 4.9 1.1 6.8 3.1m288.5 122.8c1.4 1.4 2.3 3.3 2.7 5.3H588v-10.2l227.5 1.8c2.6-.1 5 1.1 6.9 3.1m15.6 80.3h-9v-41h9v41zm-24.7 79c-1.7 0-3.3-1.5-3.3-3.2v-32.7c0-.9.5-1.7 1.2-2.3.5-.5 1.4-.8 2.2-.8h41.2c1.7 0 3.5 1.4 3.5 3v32.8c0 1.7-1.8 3.2-3.5 3.2h-41.3m-193.2 12.8c0-11 2.1-21.6 6.3-31.6 12.8-30.9 42.8-50.9 76.3-50.9s63.4 20 76.3 50.9c4.2 10 6.3 20.6 6.3 31.6 0 45.5-37 82.5-82.5 82.5s-82.7-37-82.7-82.5m-5.3-34.8c.3 0 .5-1.3.7-1.9v.1c0-.1.1-.3.1-.4 0-.1.1-.2.1-.2.1-.2.1-.4.2-.5v-.1l17.9-50.4c3.3-9.4 12.2-15.5 22.1-15.5h85.7c9.3 0 17.7 5.3 21.4 13.8l16.7 37.7 4.3 9.9c.2.6 1.5 3.6 3.9 7.5h.1c.1.1.1.2.2.2h-6.1c-.6-1-1.3-2.8-2-4.2-.2-.4-.4-.5-.5-.9-.1-.2-.2-.4-.3-.7-.3-.5-.5-1-.8-1.4-.6-1-1.2-2.1-1.8-3.1-.2-.4-.4-.7-.7-1.1-.9-1.4-1.8-2.8-2.8-4.1-.3-.4-.5-.8-.8-1.2l-2.1-2.7c-.3-.4-.6-.7-.9-1.1-1.6-2-3.3-3.8-5-5.6l-.9-.9-1.1-1.1c-.3-.3-.7-.6-1-.9-.4-.4-.9-.8-1.3-1.2-.4-.3-.7-.6-1.1-1-.9-.7-1.7-1.4-2.6-2.1-.4-.3-.7-.6-1.1-.9l-1.2-.9c-.4-.3-.8-.6-1.3-.9l-1.2-.9c-.4-.3-.9-.6-1.3-.9-.4-.3-.8-.5-1.2-.8-.9-.6-1.8-1.1-2.7-1.7-.4-.3-.9-.5-1.3-.8-.3-.2-.6-.3-.9-.5-.4-.2-.9-.5-1.3-.7-1.1-.6-2.2-1.1-3.3-1.6-.4-.2-.9-.4-1.3-.6-.8-.4-1.7-.7-2.5-1.1-.4-.2-.8-.3-1.3-.5l-.9-.3c-.4-.2-.8-.3-1.2-.4-2.1-.8-4.2-1.4-6.3-2l-1.2-.3c-.7-.2-1.4-.4-2.1-.5-.3-.1-.6-.1-.9-.2l-1.5-.3c-2.5-.5-5.1-.9-7.7-1.2-.5-.1-.9-.1-1.4-.1h-.4c-.8-.1-1.5-.1-2.3-.2-.7-.1-1.4-.1-2.1-.1h-7.2c-.7 0-1.4.1-2.1.1-.8 0-1.5.1-2.3.2h-.4c-.5 0-1 .1-1.4.1-2.6.3-5.2.7-7.7 1.2l-1.5.3c-.3.1-.6.1-.9.2-.7.2-1.4.4-2.1.5l-1.2.3c-2.1.6-4.3 1.3-6.3 2-.4.1-.8.3-1.2.4l-.9.3c-.4.2-.8.3-1.3.5-.9.4-1.7.7-2.5 1.1-.4.2-.9.4-1.3.6-1.1.5-2.2 1.1-3.3 1.6-.5.2-.9.5-1.3.7-.3.2-.6.3-.9.5-.5.3-.9.5-1.3.8-.9.5-1.8 1.1-2.7 1.7-.4.3-.8.5-1.2.8-.9.6-1.7 1.2-2.6 1.8l-1.2.9c-.5.3-.9.7-1.4 1-.3.3-.7.5-1 .8-2.7 2.1-5.3 4.4-7.7 6.9-.4.4-.7.8-1.1 1.1-.4.4-.7.8-1.1 1.2-.4.4-.7.8-1.1 1.2-.4.4-.7.8-1 1.2-.3.4-.7.8-1 1.2-.3.4-.7.8-1 1.2-.3.4-.7.8-1 1.3-.3.4-.6.8-1 1.3-.3.4-.6.9-.9 1.3-.6.9-1.2 1.7-1.8 2.6-.3.4-.6.9-.9 1.3-.2.4-.5.7-.7 1.1-.3.6-.7 1.1-1 1.7-.5.9-1.1 1.9-1.6 2.8-.5 1-1 1.9-1.5 2.9-.2.4-.4.8-.6 1.3-.3.6-.6 1.7-.8 1.7h-8.7zm-23 13.1c-.6-1-1.6-2.2-2.6-2.2 4.7-6 8.3-12.5 10.8-19.5l18.3-52.8c4.1-11.7 15.1-19.7 27.4-19.7h104.7c11.5 0 21.9 7 26.5 17.6l29.1 63V343c-4-2-8.4-5.4-12-10.1-.1-.1-.1-.2-.1-.3-.2-.3-.5-.6-.7-1-.2-.3-.4-.6-.7-.9 0 0 0-.1-.1-.1-.2-.2-.3-.5-.5-.7-.1-.1-.2-.3-.2-.4-.1-.2-.2-.3-.3-.5-.2-.3-.4-.6-.5-.9-.2-.3-.3-.6-.5-.9-.1-.2-.3-.4-.4-.7-.1-.1-.1-.2-.2-.3l-.3-.6c-.1-.1-.1-.2-.1-.3 0-.1-.1-.1-.1-.2-.1-.2-.2-.4-.3-.5l-.3-.6c-.1-.1-.1-.2-.2-.4-.1-.1-.1-.2-.2-.3 0-.1-.1-.1-.1-.2-.1-.1-.1-.2-.2-.3h-.1v-.5l-21-48c-4.4-10-14.3-16.7-25.2-16.7H656c-10.6 0-20.1 6.3-24.7 15.6-.5 1-1 2.2-1.3 3.3l-8.1 23-9.7 27.5s0 .2-.1.5c-.1.2-.1.6-.3.9-.4 1.1-.7 2.8-1.7 4.8-3 6.9-9 18.3-17 23.2v-8.1c-.1-1.2-.6-2.2-1.3-3.4M283 348.5c0-1.7 1.2-2.7 2.8-2.7h299.6c1.1 0 2.3.4 2.9 1.3.3.5.7.9.7 1.4v13.7c0 1.7-1.8 3.6-3.5 3.6H285.9c-1.7 0-2.8-1.9-2.8-3.5v-13.8zM183.4 450c-45.5 0-82.6-37-82.6-82.5 0-11 2.1-21.6 6.3-31.6 12.8-30.9 42.8-50.9 76.3-50.9s63.4 20 76.3 50.9c4.2 10 6.3 20.6 6.3 31.6-.1 45.4-37.1 82.5-82.6 82.5M97.8 331.8c2.5-5 4.1-10.2 4.4-11.3l14.8-42.2c3.3-9.4 12.2-15.5 22.1-15.5h85.7c9.3 0 17.7 5.1 21.4 13.6l24.5 55.4h-7.5c-13.8-31-44.8-52.2-79.6-52.2-34.7 0-65.8 21.2-79.6 52.2h-6.2zm.3-12.5C96.7 324.2 92 336 87 341.4v-24.8c0-.2-.1-.4-.1-.6 0-.2-.1-.3-.1-.5 0-.1-.1-.2-.1-.3-.1-.1-.1-.3-.2-.4l-.3-.6 15.2-43.6c4.1-11.7 15.1-19.7 27.4-19.7h104.7c11.5 0 21.9 7.3 26.6 17.8l31.8 73.2h-6c-2.2 0-4.1.6-5.4 2.1L250 274.4c-4.4-10-14.3-16.7-25.2-16.7H139c-11.7 0-22.2 7.6-26 18.7l-14.9 42.9M36 317.8c0-1.7 1-3.1 2.7-3.1h41.2c.5 0 1 .1 1.5.4.3.2.7.4 1 .7.4.5.7 1.2.7 1.9v32.7c0 1.7-1.5 3.2-3.1 3.2H38.7c-1.7 0-2.7-1.5-2.7-3.2v-32.6m28-97v-67h5v67h-5zm-60-117h32v55.6c0 1.1.9 2.1 2 2.1s2-.9 2-2.1v-55.6h8v106.7c0 1.1.9 2.1 2 2.1s2-.9 2-2.1V103.8h8v166H28v-9.5c0-1.1-.9-2.1-2-2.1s-2 .9-2 2.1v9.5h-8v-20.7c0-1.1-.9-2.1-2-2.1s-2 .9-2 2.1v20.7H4v-166z"/><path class="st0" d="M92.9 235.8h20.8c1.1 0 2.1.9 2.1 2 0 1.2-.9 2-2.1 2H92.9c-1.1 0-2.1-.8-2.1-2s1-2 2.1-2m31.2 0h52c1.2 0 2.1.9 2.1 2 0 1.2-.9 2-2.1 2h-52c-1.1 0-2.1-.8-2.1-2s1-2 2.1-2m86.7-18h52c1.2 0 2.1.9 2.1 2 0 1.2-.9 2-2.1 2h-52c-1.1 0-2.1-.8-2.1-2s.9-2 2.1-2m-33.3 2c0-1.1.9-2 2.1-2h20.8c1.2 0 2.1.9 2.1 2 0 1.2-.9 2-2.1 2h-20.8c-1.2 0-2.1-.9-2.1-2m332.9 95h52c1.2 0 2.1.9 2.1 2s-.9 2-2.1 2h-52c-1.1 0-2.1-.9-2.1-2s.9-2 2.1-2m-31.2 0H500c1.1 0 2.1.9 2.1 2s-.9 2-2.1 2h-20.8c-1.1 0-2.1-.9-2.1-2s.9-2 2.1-2m-162.7 0h52c1.2 0 2.1.9 2.1 2 0 1.2-.9 2-2.1 2h-52c-1.1 0-2.1-.8-2.1-2s1-2 2.1-2m62.4 0h17.3c1.1 0 2.1.9 2.1 2 0 1.2-.9 2-2.1 2h-17.3c-1.1 0-2.1-.8-2.1-2s1-2 2.1-2"/></svg>