<svg xmlns="http://www.w3.org/2000/svg" viewBox="0 0 35.005 32.12"><g fill="none" stroke="#d5b674" stroke-width=".75" stroke-linecap="round" stroke-miterlimit="22.926"><path d="M7.438 20.417h20.006"/><path d="M17.347 24.507c2.465 0 4.482 1.945 4.482 4.323v2.915h-8.964V28.83c0-2.378 2.017-4.323 4.482-4.323zM.375 22.345h9.056v1.445l-1.458 2.061h-6.14L.375 23.79v-1.445zm1.985 0l-.031-4.271m5.117 4.271l-.03-4.271m-5.583 7.777h6.119v5.893H1.833zm.108 5.894h31.212M4.881 9.892l1.59 4.091 1.591 4.091H1.7l1.59-4.091zm20.693 12.453h9.056v1.445l-1.458 2.061h-6.14l-1.458-2.061v-1.445zm1.985 0l-.03-4.271m5.117 4.271l-.031-4.271m-5.583 7.777h6.119v5.893h-6.119zM30.08 9.892l1.591 4.091 1.59 4.091h-6.362l1.591-4.091zM17.347 24.507v7.238m-6.248-13.671l-.003-3.144m12.971 3.144l-.003-3.144m-12.962 0h12.962m-10.123-.134l-.045-6.904m7.613 6.904l-.045-6.904M17.692.683l2.367 3.604 2.366 3.605h-9.466l2.367-3.605zM7.438 18.1h20.006M4.771 19.328v1.656M15.493 9.803v2.46m2.219-2.46v2.46m2.177-2.46v2.46m10.109 7.065v1.656" fill-rule="evenodd" clip-rule="evenodd"/></g></svg>