<svg id="Layer_1" xmlns="http://www.w3.org/2000/svg" xmlns:xlink="http://www.w3.org/1999/xlink" viewBox="0 0 105.3 90.9"><style>.st0{clip-path:url(#SVGID_2_);fill-rule:evenodd;clip-rule:evenodd;fill:#fff}</style><defs><path id="SVGID_1_" d="M0 0h105.3v90.9H0z"/></defs><clipPath id="SVGID_2_"><use xlink:href="#SVGID_1_" overflow="visible"/></clipPath><path class="st0" d="M83.7 12.1C88.6 3.7 96 0 101.4 0c9.3 0 .5 14.9-11.1 14.1-.9-.1-1.1-.1 0-.2.2 0 .5 0 .8-.1 3.3-.2 7.7-2.3 9.3-5.5 4-7.5-7.7-6.9-14.2 4.1L66.8 45.5l8.6-.6 7.7-.6s-.1-.1-.1-.2l-7.1-.5 6-16.3c.4-1.5 1.8-2.9 3.3-3.3 1.5-.4 2.8.3 3.1 1.6l-.3 2.7h4.2v.5H88l-1.3 13.8c1.6.1 2.8.6 2.8 1.2h2.9c1.5-.1 2.3 1 2.3 2.4.5.2.8.5.8.8 0 .4-.5.7-1.2 1-.7 1.7-2.2 2.9-3.9 2.9h-5.7l-7.2 16.6h4.8v.5h-5l-.5 1.3c-1 1.4-2.7 2.2-4.1 1.9s-2.1-1.6-1.7-3.1l3.1-17.7-9.2-1.8-8.3 14c-27.7 41.8-68.1 31.3-53.4 5.5C11.9 53 30.4 44.9 46.5 45.9c3 .2 3.7.5 0 .6-.8 0-1.7.1-2.9.2-11.5.6-26.4 8.1-32.1 19.1C-1.8 91.6 33 95.7 55.2 59l28.5-46.9zM59.2 43h1.3c.6 0 .9.5.8 1.1l-.5 1.8-1.1 1.8h-.1L58 50.4h-.8c-.6 0-.9-.5-.8-1.1l.6-2.1-.8-.2.2-.8.9-.1.5-2c.1-.6.8-1.1 1.4-1.1m35.3-3c2.1.4 3.1 4 2.2 8-.8 4-3.2 6.9-5.2 6.5-1-.2-1.7-1.1-2.1-2.4.4.8.9 1.3 1.6 1.5 1.8.4 3.9-2.2 4.6-5.7.7-3.5-.1-6.7-1.9-7-.9-.2-1.8.3-2.6 1.2.9-1.5 2.2-2.4 3.4-2.1"/></svg>