<svg id="Слой_1" xmlns="http://www.w3.org/2000/svg" viewBox="0 0 277.5 90.9"><style>.st0{fill-rule:evenodd;clip-rule:evenodd}.st0,.st1{fill:#fff}</style><path class="st0" d="M83.7 12.1C88.6 3.7 96 0 101.4 0c9.3 0 .5 14.9-11.1 14.1-.9-.1-1.1-.1 0-.2.2 0 .5 0 .8-.1 3.3-.2 7.7-2.3 9.3-5.5 4-7.5-7.7-6.9-14.2 4.1L66.8 45.5l8.6-.6 7.7-.6s-.1-.1-.1-.2l-7.1-.5 6-16.3c.4-1.5 1.8-2.9 3.3-3.3 1.5-.4 2.8.3 3.1 1.6l-.3 2.7h4.2v.5H88l-1.3 13.8c1.6.1 2.8.6 2.8 1.2h2.9c1.5-.1 2.3 1 2.3 2.4.5.2.8.5.8.8 0 .4-.5.7-1.2 1-.7 1.7-2.2 2.9-3.9 2.9h-5.7l-7.2 16.6h4.8v.5h-5l-.5 1.3c-1 1.4-2.7 2.2-4.1 1.9-1.4-.3-2.1-1.6-1.7-3.1l3.1-17.7-9.2-1.8-8.3 14c-27.7 41.8-68.1 31.3-53.4 5.5C11.9 53 30.4 44.9 46.5 45.9c3 .2 3.7.5 0 .6-.8 0-1.7.1-2.9.2-11.5.6-26.4 8.1-32.1 19.1C-1.8 91.6 33 95.7 55.2 59l28.5-46.9zM59.1 43h1.3c.6 0 .9.5.8 1.1l-.5 1.8-1.1 1.8h-.1L58 50.4h-.8c-.6 0-.9-.5-.8-1.1l.6-2.1-.8-.2.2-.8.9-.1.5-2c.1-.6.8-1.1 1.3-1.1zm35.4-3c2.1.4 3.1 4 2.2 8-.8 4-3.2 6.9-5.2 6.5-1-.2-1.7-1.1-2.1-2.4.4.8.9 1.3 1.6 1.5 1.8.4 3.9-2.2 4.6-5.7.7-3.5-.1-6.7-1.9-7-.9-.2-1.8.3-2.6 1.2.9-1.5 2.2-2.4 3.4-2.1zm171.4-8.2h2c4 0 5.6 2.6 5.6 4.8 0 2.3-1.5 4.9-6.3 4.9-.5 0-.9 0-1.3-.1v-9.6zm-4-3.7v26.1l4-.5v-8.6c.6.1 1.2.1 1.7.1 6.6 0 9.9-4.3 9.9-8.6 0-4-2.8-8.6-9.6-8.6h-6v.1zm-27.3 13c0-5.1 3.9-9.9 9.9-9.9 5.9 0 9.9 4.8 9.9 9.9 0 5.4-4.3 9.8-9.9 9.8-5.6.1-9.9-4.4-9.9-9.8zm-4 0c0 7.9 6.7 13.6 13.9 13.6s13.9-5.6 13.9-13.6c0-8.4-7.2-13.6-13.9-13.6s-13.9 5.2-13.9 13.6zm-11.5-9.3v22.5l4-.5v-22h5.7v-3.7h-15.3l-1.1 3.7h6.7zM201.6 35l3.6 7.4H198l3.6-7.4zm-5.2 10.9h10.3l4.2 8.8 4-.8-13.3-26.7L188.2 54l3.9.8 4.3-8.9zm-27.6-18.2l-4 .4v27.2l17.3-18.8v17.8l4-.5V26.9l-17.3 18.7V27.7zm-21.7 14.8h3.9c3.2 0 4.6 2 4.6 3.9 0 2-1.6 3.9-4.9 3.9h-3.6v-7.8zm0-10.7h3c3.1 0 4.6 1.6 4.6 3.6 0 1.9-1.5 3.7-4.2 3.7h-3.4v-7.3zm-4-3.7V54h7.5c5.8 0 9-3.1 9-7.4 0-3.2-2-5.2-4.4-6 2.3-1.2 3.4-3.4 3.4-5.7 0-2.7-1.7-6.9-9.2-6.9h-6.3v.1zM126.9 35l3.6 7.4h-7.1l3.5-7.4zm-5.1 10.9h10.3l4.2 8.8 4-.8L127 27.1l-13.4 26.8 3.9.8 4.3-8.8z"/><path class="st1" d="M115.6 67.8h-1.4v10h1.4v-3.5l1.6-1.5 3.5 5h1.8l-4.3-6 4.2-4h-1.9l-4.9 4.9v-4.9zm15.5 0v5c0 2.8-.2 4.1-1.3 4.1-.3 0-.5 0-.6-.1v1.1c.3.1.6.1.9.1 1.4 0 2.3-1 2.3-4.8V69h3.8v8.8h1.4v-10h-6.5zm21.6 0l-2.9 6.8-3.1-6.8h-1.4l3.9 8.2c-.5.8-.6 1-1.1 1-.3 0-.6 0-.8-.1V78c.3.1.6.1 1 .1.8 0 1.5-.3 2.2-1.9l3.8-8.4h-1.6zm9.1 0v10h4.7c1.8 0 3-1.2 3-2.8 0-1.4-.8-3.1-3-3.1h-3.3V69h5.7v-1.2h-7.1zm1.4 5.3h2.8c1.2 0 2.1.5 2.1 1.8s-.9 1.6-2 1.6h-2.9v-3.4zm15.7-5.3h-1.4v10h1.4v-4.7h5.2v4.7h1.4v-10h-1.4v4.1h-5.2v-4.1zm16.5 0H194v10h4.7c1.8 0 3-1.2 3-2.8 0-1.4-.8-3.1-3-3.1h-3.3v-4.1zm0 5.3h2.8c1.2 0 2.1.5 2.1 1.8s-.9 1.6-2 1.6h-2.9v-3.4zm8.8-5.3h-1.4v10h1.4v-10zm9.9 0h-1.4v10h1.6l5.1-8.1v8.1h1.4v-10h-1.5l-5.1 8.2h-.1v-8.2zm1.2-2.7h-.7c.1.5.2 1.9 2.1 1.9 1.8 0 2-1.4 2.1-1.9h-.7c-.2.6-.5 1-1.4 1-1 .1-1.2-.4-1.4-1zm19 2.7V71c0 2.3-.1 3.7-1 5.6h-.8V80h1.2v-2.2h6.8V80h1.2v-3.4h-.9v-8.8h-6.5zm5.2 8.8h-4.9c.9-1.7 1-3.2 1-5.4V69h3.9v7.6zm18-3.8c0 2.4-1.3 4.1-3.5 4.1s-3.5-1.7-3.5-4.1c0-2.4 1.3-4 3.5-4 2.2-.1 3.5 1.6 3.5 4zm1.4 0c0-2.2-1.1-5.3-4.9-5.3-3.7 0-4.9 3.1-4.9 5.3 0 2.2 1.1 5.3 4.9 5.3 3.8 0 4.9-3.1 4.9-5.3zm8.1-5v10h1.3v-8.4l2.8 8.4h1.3l2.8-8.4v8.4h1.3v-10h-1.9l-2.9 8.5-2.8-8.5H267z"/></svg>