<?xml version="1.0" encoding="utf-8"?>
<!-- Generator: Adobe Illustrator 19.1.0, SVG Export Plug-In . SVG Version: 6.00 Build 0)  -->
<svg version="1.1" id="Layer_1" xmlns="http://www.w3.org/2000/svg" xmlns:xlink="http://www.w3.org/1999/xlink" x="0px" y="0px"
	 viewBox="0 0 862 454.3" style="enable-background:new 0 0 862 454.3;" xml:space="preserve">
<style type="text/css">
	.st0{clip-path:url(#SVGID_2_);fill:#414042;}
</style>
<g>
	<defs>
		<rect id="SVGID_1_" x="0" width="862" height="454.3"/>
	</defs>
	<clipPath id="SVGID_2_">
		<use xlink:href="#SVGID_1_"  style="overflow:visible;"/>
	</clipPath>
	<path class="st0" d="M390,188.8c4.6,0,8-3.4,8-7.9v-77.9c0-4.6-3.5-8.2-8-8.2h-53.3h0h-20.1h0h-19.3c-4.6,0-8.2,3.6-8.2,8.2v77.9
		c0,4.6,3.6,7.9,8.2,7.9H390 M394,180.8c0,2.3-1.8,3.9-4,3.9h-92.7c-2.3,0-4.2-1.7-4.2-3.9v-77.9c0-2.3,1.9-4.2,4.2-4.2h1.3
		l36.4,59.9c0.4,0.6,1.1,1,1.8,1c0.4,0,0.7-0.1,1.1-0.3c1-0.6,1.3-1.9,0.7-2.9l-35.1-57.7h12l51,78.8c0.4,0.6,1.1,1,1.7,1
		c0.4,0,0.8-0.1,1.1-0.3c1-0.6,1.2-1.9,0.6-2.9l-49.6-76.6h15.2l17.7,25.5c0.4,0.6,1.1,0.9,1.7,0.9c0.4,0,0.8-0.1,1.2-0.4
		c0.9-0.7,1.2-2,0.5-2.9l-16-23.1H390c2.3,0,4,1.9,4,4.2V180.8z"/>
	<path class="st0" d="M563.8,183.4c0.8-2,0.8-4.3,0-6.4l-29.1-76.6c-1.3-3.4-4.7-5.7-8.4-5.7h-40.1H486h-19.9h-0.3h-16.6H449h-9.4
		c-4.9,0-8.6,3.9-8.6,8.8v76.6c0,4.9,3.7,8.6,8.6,8.6H534v5.6c0,1.1,0.4,2.4,1.6,2.4h11.5c1.1,0,1.9-1.2,1.9-2.4v-5.6h6.5
		c2.2,0,4.3-0.6,6-2.1c0,0,0,0.2,0,0.2l4.3,3.4c0.4,0.3,0.8,0.5,1.3,0.5c0.6,0,1.2-0.3,1.6-0.8c0.7-0.9,0.6-2.2-0.3-2.9L563.8,183.4
		L563.8,183.4 M549,184.8V177l9,7.1c0,0,0.1,0,0.1,0c-0.8,0.5-1.7,0.7-2.6,0.7H549z M538,189.1v-36.4h7v36.4v3.6h-7V189.1z
		 M548.8,148.8h-1.7h-11.5H534v2.3v33.7h-94.4c-2.6,0-4.6-1.9-4.6-4.6v-76.6c0-2.6,2-4.8,4.6-4.8h8.3l47.9,78.8c0.4,0.6,1.1,1,1.8,1
		c0.4,0,0.7-0.1,1.1-0.3c1-0.6,1.3-1.9,0.7-2.9l-46.6-76.6h12l39.7,62.2c0.4,0.6,1.1,1,1.8,1c0.4,0,0.8-0.1,1.1-0.3
		c1-0.6,1.3-1.9,0.6-2.9l-38.3-59.9H485l14.5,22.6c0.4,0.6,1.1,1,1.8,1c0.4,0,0.8-0.1,1.1-0.3c1-0.6,1.2-1.9,0.6-2.9l-13.1-20.4
		h36.5c2,0,3.8,1.1,4.5,3L548.8,148.8z M559.9,178.5c0.3,0.7,0.3,1.4,0.3,2.1l-11.1-8.9V151v-1L559.9,178.5"/>
	<path class="st0" d="M468,231.8h-37v12h37V231.8z M464,239.8h-29v-3h29V239.8z"/>
	<path class="st0" d="M289,243.8h37v-12h-37V243.8z M293,236.8h29v3h-29V236.8z"/>
	<path class="st0" d="M750,233.7c0,1.1,0.9,2.1,2.1,2.1h21.8c1.1,0,2.1-0.9,2.1-2.1v-11.8c0-1.1-0.9-2.1-2.1-2.1h-21.8
		c-1.1,0-2.1,0.9-2.1,2.1V233.7z M754,223.8h18v8h-18V223.8z"/>
	<path class="st0" d="M662,343.7c-3.1,5.4-5,11.3-5.7,17.5c-0.2,1.7-0.3,3.5-0.3,5.4c0,11.8,4.4,23,12.3,31.6
		c4.2,4.6,9.2,8.2,14.9,10.8c6.1,2.8,12.6,4.3,19.5,4.3c6.8,0,13.3-1.4,19.4-4.2c0,0,0,0,0.1,0c1.4-0.6,2.8-1.4,4.1-2.1
		c2.6-1.5,5.1-3.4,7.4-5.4c1.2-1,2.3-2.1,3.3-3.3c8-8.6,12.3-19.9,12.3-31.6c0-1.9-0.1-3.7-0.3-5.4c-0.7-6.2-2.6-12-5.7-17.5
		c-2.3-4.1-5.2-7.8-8.6-11.1c-6.3-6-14.2-10.1-22.8-11.8c0,0-0.1,0-0.1,0c-0.4-0.1-0.8-0.1-1.1-0.2c-5.7-1-11.5-0.9-17.2,0.2
		c-8.6,1.8-16.5,5.8-22.9,11.9C667.2,335.9,664.3,339.6,662,343.7C662,343.7,662,343.7,662,343.7 M661.9,354.5
		c0.2-0.7,0.4-1.4,0.7-2c0.1-0.3,0.2-0.7,0.4-1c0.1-0.3,0.2-0.6,0.4-1c0.1-0.3,0.3-0.6,0.4-1c0.1-0.3,0.3-0.6,0.4-1
		c0.1-0.3,0.3-0.6,0.5-1c0.1-0.1,0.1-0.3,0.2-0.4l22.8,7.4c0,0-0.1,0.1-0.1,0.1c-0.2,0.3-0.5,0.5-0.7,0.9c-0.1,0.1-0.1,0.2-0.2,0.3
		c-0.1,0.1-0.2,0.2-0.3,0.4l-0.1,0.2c-0.2,0.3-0.3,0.5-0.5,0.8c-0.1,0.2-0.2,0.3-0.2,0.5c-0.3,0.4-0.5,0.9-0.6,1.3
		c-0.5,1.2-0.8,2.3-1.1,3.4c-0.1,0.4-0.2,0.8-0.2,1.2c-0.2,0.9-0.3,1.9-0.3,3c0,0.3,0,0.5,0,0.8l-22.8-7.4c0.1-0.5,0.2-1,0.3-1.4
		c0.1-0.4,0.2-0.9,0.3-1.3c0.1-0.3,0.1-0.5,0.2-0.8c0.1-0.4,0.2-0.8,0.3-1.1C661.7,355.1,661.8,354.8,661.9,354.5 M699.3,381.3
		c-0.8-0.1-1.6-0.4-2.3-0.7c-0.2-0.1-0.3-0.1-0.4-0.2l-0.2-0.1c-0.3-0.1-0.6-0.3-0.9-0.5c-0.4-0.2-0.7-0.4-0.9-0.5l-0.1-0.1
		c-0.1-0.1-0.2-0.1-0.3-0.2l-0.6-0.4c-0.1-0.1-0.3-0.2-0.4-0.3l-0.2-0.2c-0.2-0.2-0.4-0.4-0.7-0.6l-0.6-0.6
		c-0.2-0.2-0.3-0.4-0.5-0.6c-0.7-0.8-1.3-1.6-1.8-2.5c-0.2-0.4-0.4-0.8-0.5-1.1l-0.1-0.2l0,0c-0.2-0.4-0.4-0.9-0.5-1.4
		c0-0.1-0.1-0.3-0.1-0.4c-0.1-0.2-0.1-0.5-0.2-0.7c0,0,0,0,0-0.1c0,0,0,0,0-0.1c0-0.1-0.1-0.4-0.1-0.5l0-0.3
		c-0.1-0.2-0.1-0.4-0.1-0.6l0-0.4l0,0l0-0.4c0-0.4,0-0.7,0-1.1c0-0.8,0.1-1.6,0.2-2.3l0-0.1c0-0.3,0.1-0.6,0.2-0.9
		c0.2-0.9,0.5-1.8,0.8-2.6c0.1-0.3,0.3-0.6,0.5-0.9l0.2-0.4c0.1-0.2,0.2-0.3,0.3-0.5l0,0l0.3-0.5c0,0,0-0.1,0.1-0.1l0.1-0.2
		c0.1-0.2,0.2-0.3,0.3-0.5l0.1-0.1c0.1-0.2,0.3-0.3,0.4-0.5l0.1-0.1c0.5-0.6,1-1.1,1.5-1.5c0.1-0.1,0.3-0.2,0.4-0.3
		c0.1,0,0.1-0.1,0.2-0.2l0.1-0.1c0.1-0.1,0.1-0.1,0.2-0.2c0.1-0.1,0.3-0.2,0.4-0.3l0.7-0.4l1.3-0.7l0.5-0.3c0.1,0,0.1,0,0.1-0.1
		c0.4-0.2,0.8-0.3,1.4-0.5l0.2-0.1c0.1,0,0.2-0.1,0.3-0.1l0.3-0.1c0.2-0.1,0.5-0.1,0.8-0.2l0.2,0c0.5-0.1,1-0.2,1.4-0.2
		c0.5-0.1,0.9-0.1,1.5-0.1s1,0,1.4,0.1c0.5,0,1,0.1,1.5,0.2l0.2,0c0.3,0.1,0.6,0.1,0.8,0.2l0.3,0.1c0.1,0,0.2,0.1,0.3,0.1l0.2,0.1
		c0.5,0.2,0.9,0.3,1.3,0.5c0.1,0,0.1,0.1,0.2,0.1l0.5,0.3l1.3,0.7l0.7,0.4l0,0c0,0,0.1,0,0.1,0.1c0.1,0,0.1,0,0.1,0.1
		c0.1,0,0.1,0.1,0.2,0.1c0.1,0.1,0.1,0.1,0.2,0.2l0.1,0.1c0.1,0.1,0.1,0.1,0.2,0.2c0.1,0.1,0.3,0.2,0.4,0.3c0.5,0.4,1,0.9,1.5,1.5
		l0.1,0.1c0.1,0.2,0.3,0.3,0.4,0.5l0.3,0.4c0.1,0.1,0.2,0.2,0.2,0.3l0.4,0.6c0.1,0.2,0.3,0.4,0.4,0.6l0.2,0.4c0.2,0.3,0.3,0.6,0.5,1
		c0.3,0.8,0.6,1.7,0.8,2.5c0.1,0.4,0.2,0.6,0.2,0.9l0,0.1c0.1,0.7,0.2,1.5,0.2,2.3c0,0.4,0,0.7-0.1,1.1l0,0.4l0,0l0,0.4
		c0,0.2,0,0.4-0.1,0.6l0,0.3c0,0.1-0.1,0.4-0.1,0.5l-0.1,0.5c0,0.1-0.1,0.3-0.1,0.4c0,0.2-0.1,0.4-0.1,0.5c-0.1,0.2-0.2,0.4-0.2,0.7
		c-0.1,0.2-0.2,0.4-0.3,0.6c0,0,0,0,0,0.1l-0.1,0.3c-0.1,0.3-0.3,0.6-0.4,0.9c-0.5,1-1.1,1.8-1.8,2.6c-0.2,0.3-0.4,0.5-0.6,0.6
		l-0.6,0.6c-0.2,0.2-0.4,0.5-0.7,0.6l-0.2,0.2c-0.1,0.1-0.2,0.3-0.4,0.3h0l-0.6,0.3c-0.1,0.1-0.2,0.1-0.3,0.2l-0.1,0.1
		c-0.3,0.2-0.6,0.3-0.9,0.5c-0.4,0.2-0.7,0.4-1,0.5l-0.2,0.1c-0.1,0.1-0.2,0.1-0.3,0.1c-0.8,0.3-1.5,0.6-2.3,0.7l-0.1,0
		c-0.2,0.1-0.4,0.1-0.7,0.1l-0.2,0l-0.3,0c-0.2,0-0.5,0.1-0.8,0.1l-0.1,0c-0.1,0-0.2,0-0.3,0c-0.7,0-1.3,0-2,0c-0.1,0-0.1,0-0.2,0
		c0,0-0.1,0-0.1,0l-0.1,0c-0.2,0-0.5-0.1-0.8-0.1l-0.4-0.1C699.9,381.4,699.7,381.4,699.3,381.3L699.3,381.3z M666.9,343.6
		c1.8-2.9,4.1-5.5,6.6-7.9c5.2-4.9,11.4-8.4,18.4-10.2v25.3c0,0.1-0.4,0.2-0.5,0.3c-0.1,0.1-0.4,0.2-0.5,0.3L666.9,343.6
		 M708.8,324.5c0.1,0,0.2,0,0.2,0.1v24c0-0.1-0.2-0.1-0.5-0.2c-0.2-0.1-0.3-0.2-0.6-0.3c-0.4-0.1-0.8-0.2-1.3-0.3
		c-0.1,0-0.3-0.1-0.5-0.1c-0.6-0.1-1.1-0.2-1.7-0.2c-0.5-0.1-1.1-0.1-1.8-0.1c-0.7,0-1.3,0-1.9,0.1c-0.5,0-1,0.1-1.6,0.2
		c-0.1,0-0.3,0-0.5,0.1c-0.5,0.1-0.9,0.2-1.2,0.3c-0.3,0.1-0.6,0.2-0.8,0.3c-0.2,0.1-0.7,0.1-0.7,0.2v-24c0,0,0.1,0,0.1,0
		c0.5-0.1,1-0.1,1.5-0.2c0.5-0.1,1.1-0.1,1.7-0.2c0.4,0,0.8-0.1,1.3-0.1c0.2,0,0.4,0,0.6,0c0.5,0,1,0,1.5,0c0.5,0,1,0,1.5,0
		c0.2,0,0.4,0,0.6,0c0.4,0,0.8,0.1,1.2,0.1c0.5,0,0.9,0.1,1.4,0.1C707.9,324.4,708.3,324.5,708.8,324.5 M732.1,335.7
		c2.5,2.4,4.6,5,6.5,7.9l-24.1,7.8c-0.1-0.1-0.1-0.2-0.2-0.2c-0.1-0.1-0.1-0.1-0.2-0.2c-0.1-0.1-0.1-0.2-0.1-0.2v-25.3
		C720,327.3,726.9,330.8,732.1,335.7 M744.5,358.5c0.1,0.5,0.2,1,0.3,1.4l-22.8,7.4c0-0.3,0-0.5,0-0.8c0-1.1-0.1-2.1-0.3-3
		c0-0.4-0.1-0.9-0.2-1.3c-0.2-1-0.5-2.1-1-3.2c-0.2-0.4-0.4-0.9-0.6-1.3c-0.1-0.1-0.1-0.3-0.2-0.4c-0.1-0.3-0.3-0.5-0.5-0.8
		l-0.1-0.2c-0.1-0.2-0.2-0.3-0.3-0.4l0,0c-0.1-0.1-0.2-0.3-0.3-0.4c-0.1-0.2-0.3-0.4-0.5-0.5c0,0-0.1,0.1-0.1,0l22.8-7.2h0
		c0.7,1,1.3,2.6,1.9,4c0.1,0.3,0.2,0.3,0.3,0.6c0.3,0.8,0.5,1.5,0.8,2.3c0.1,0.2,0.1,0.5,0.2,0.7C744,356.4,744.3,357.5,744.5,358.5
		 M745.2,366.6c0,9.9-3.4,19.3-9.6,26.9l-14.8-20.4c0.1-0.2,0.2-0.4,0.2-0.7c0-0.1,0.1-0.2,0.1-0.3l0-0.1l24-7.8
		C745.2,365,745.2,365.8,745.2,366.6 M723.7,403.6c-0.6,0.3-1.2,0.6-1.7,0.9l-14.1-19.4c0.7-0.2,1.4-0.4,2.1-0.7
		c0.2,0,0.3-0.1,0.5-0.2c0.5-0.2,1-0.4,1.4-0.7c0.3-0.2,0.7-0.4,1-0.6c0,0,0.1-0.1,0.2-0.1l0.1-0.1c0,0,0.1-0.1,0.2-0.1l0.3-0.2
		c0.4-0.3,0.9-0.6,1.3-1c0.3-0.3,0.7-0.6,1-0.9c0.2-0.2,0.4-0.4,0.6-0.6c0.3-0.3,0.6-0.6,0.8-0.9c0.5-0.5,0.9-1.1,1.3-1.7l14.1,19.4
		c-0.4,0.4-0.8,0.8-1.2,1.2c-0.3,0.3-0.7,0.6-1,0.9c-0.1,0.1-0.3,0.2-0.4,0.3c-0.4,0.3-0.7,0.6-1.1,0.9c0,0,0,0,0,0
		c-0.4,0.3-0.9,0.7-1.3,1c-0.5,0.3-0.9,0.7-1.4,1c-0.5,0.3-0.9,0.6-1.4,0.9C724.5,403.1,724.1,403.3,723.7,403.6 M702.7,409.1
		c-5.4,0-10.5-1-15.4-2.9l14.8-20.4c0.4,0,0.7,0,1.1,0l14.8,20.4C713.2,408.2,708,409.1,702.7,409.1 M673.8,397.8
		c-0.4-0.4-0.8-0.8-1.2-1.2l14.1-19.4c0.4,0.6,0.8,1.2,1.3,1.8c0.2,0.2,0.5,0.5,0.8,0.8c0.2,0.2,0.4,0.4,0.6,0.6
		c0.3,0.4,0.7,0.7,1,0.9c0.4,0.4,0.8,0.7,1.3,1l0.6,0.4c0.1,0,0.1,0.1,0.2,0.1c0.4,0.2,0.7,0.4,1.1,0.6c0.4,0.2,0.9,0.5,1.3,0.7
		c0.2,0.1,0.4,0.2,0.6,0.3c0.6,0.3,1.3,0.5,2,0.7l-14.1,19.4c-0.4-0.2-0.9-0.5-1.3-0.7c-0.1-0.1-0.2-0.1-0.4-0.2
		c-0.4-0.3-0.9-0.5-1.3-0.8c-0.4-0.3-0.9-0.5-1.3-0.8c-0.5-0.3-1-0.7-1.5-1c-0.5-0.3-0.9-0.7-1.3-1c0,0,0,0,0,0
		c-0.4-0.3-0.8-0.6-1.1-0.9c-0.1-0.1-0.3-0.2-0.4-0.3C674.5,398.5,674.2,398.1,673.8,397.8 M669.8,393.5c-6.2-7.6-9.6-17-9.6-26.9
		c0-0.8,0-1.6,0.1-2.4l24,7.8c0.1,0.3,0.1,0.5,0.2,0.7c0,0.1,0.1,0.2,0.1,0.4L669.8,393.5"/>
	<path class="st0" d="M141.8,388.7c0.3,0.6,0.6,1.2,1,1.8c8,14.1,23.2,23.7,40.6,23.7c25.7,0,46.7-20.9,46.7-46.7
		c0-11.9-4.4-23.1-12.4-31.7c-0.1-0.2-0.2-0.3-0.3-0.5c-2.1-2.2-4.5-4.3-6.9-6c-2.5-1.8-5.2-3.3-8-4.6c-0.3-0.1-0.6-0.2-0.8-0.2
		c-5.7-2.4-11.8-3.7-18.2-3.7c-6.6,0-13.1,1.4-19,4c-0.3,0-0.7,0-1,0.2c-5.7,2.6-10.6,6.3-14.8,10.9c-0.2,0.3-0.4,0.6-0.5,0.9
		c-7.4,8.5-11.5,19.2-11.5,30.7c0,1.7,0.1,3.3,0.3,4.9c0,0.2-0.1,0.5,0,0.7C137.6,378.5,139.3,383.8,141.8,388.7 M145.5,386.9
		c-0.2-0.3-0.3-0.7-0.5-1c-1.8-3.6-3-7.6-3.7-11.7l22.7-7.6c0,0.1,0,0.2,0,0.4c0,4.7,1.7,8.9,4.4,12.3L145.5,386.9 M176.7,385
		c2,0.8,4.3,1.2,6.6,1.2c2.4,0,4.7-0.4,6.8-1.2l0.2,24.2c-4.4,0.7-9,0.8-13.4,0.1L176.7,385z M225.3,373.5c-0.7,4.5-2,8.8-4,12.8
		l-23-7.3c2.6-3.3,4.2-7.5,4.2-12c0-0.2,0-0.4,0-0.7L225.3,373.5 M212.5,336.5c0.2,0.1,0.3,0.3,0.5,0.5l-13.8,19.3
		c-2.5-3.8-6.3-6.6-10.8-7.8l13.7-19.2C205.9,331.1,209.4,333.6,212.5,336.5 M183.3,351.9c0.8,0,1.5,0.1,2.3,0.2
		c5,0.8,9.2,4,11.3,8.4c0.6,1.2,1,2.6,1.3,4c0.2,0.8,0.2,1.7,0.2,2.6c0,8.3-6.8,15.1-15.1,15.1c-8.3,0-15.1-6.8-15.1-15.1
		c0-0.9,0.1-1.8,0.3-2.7c0-0.1,0-0.1,0.1-0.2c0.2-0.9,0.5-1.8,0.8-2.6c0.1-0.2,0.1-0.4,0.1-0.5c2-4.5,6.2-7.9,11.2-8.8
		C181.5,351.9,182.4,351.9,183.3,351.9 M154.2,336.5c2.9-2.8,6.1-5.1,9.6-6.9l13.9,18.9c-4.4,1.3-8.2,4.2-10.7,8.1l-14-18.9
		C153.4,337.3,153.8,336.9,154.2,336.5 M140.9,369.9c-0.1-0.8-0.1-1.6-0.1-2.5c0-9.9,3.3-19.1,9.4-26.6l14.8,20
		c-0.1,0.4-0.3,0.8-0.4,1.1L140.9,369.9 M183.4,324.9c5.2,0,10.2,0.9,14.9,2.7l-14.4,20.2c-0.2,0-0.4,0-0.6,0c-0.3,0-0.6,0-1,0
		l-14.7-19.8C172.6,325.9,177.9,324.9,183.4,324.9 M215.9,340.1c6.5,7.6,10,17.2,10,27.4c0,0.6,0,1.2,0,1.8l-24.1-7.6
		c-0.1-0.4-0.2-0.8-0.4-1.2L215.9,340.1 M219.4,390c-5.6,9-14.5,15.7-25,18.5l-0.2-25.5c0.3-0.2,0.6-0.4,0.9-0.7L219.4,390
		 M172.7,408.6c-10.4-2.7-19.3-9.3-25-18.1l23.9-8c0.2,0.1,0.3,0.2,0.4,0.3c0.2,0.1,0.3,0.2,0.5,0.3L172.7,408.6"/>
	<path class="st0" d="M123.6,94.8h-12.8c-4.6,0-8.8,3.6-8.8,8.2v77.9c0,4.6,4.2,7.9,8.8,7.9h151.1c4.6,0,8.1-3.4,8.1-7.9v-77.9
		c0-4.6-3.5-8.2-8.1-8.2h-67.7h-0.1H123.6L123.6,94.8z M107,102.9c0-2.3,1.5-4.2,3.8-4.2h11.7l16.8,25.4c0.4,0.6,1.1,0.9,1.7,0.9
		c0.4,0,0.8-0.1,1.1-0.3c1-0.6,1.2-1.9,0.6-2.9l-15.3-23.2h13.8c0,0,0.1,0.5,0.3,0.8l37,60.9c0.4,0.6,1.1,1,1.8,1
		c0.4,0,0.7-0.1,1.1-0.3c1-0.6,1.3-1.9,0.7-2.9l-36.2-59.5h13.8c0,0,0.1,0.5,0.3,0.7l46.2,78c0.4,0.7,1.1,1,1.8,1
		c0.4,0,0.7-0.1,1.1-0.3c1-0.6,1.3-1.9,0.7-2.9l-45.4-76.6h13.3c0,0,0.1,0.5,0.3,0.8l37,60.9c0.4,0.6,1.1,1,1.8,1
		c0.4,0,0.7-0.1,1.1-0.3c1-0.6,1.3-1.9,0.7-2.9l-36.2-59.5H193l8.2,12.3c0.4,0.6,1.1,0.9,1.7,0.9c0.4,0,0.8-0.1,1.2-0.4
		c1-0.6,1.2-1.9,0.6-2.9l-6.6-10h63.8c2.3,0,4.1,1.9,4.1,4.2v77.9c0,2.3-1.8,3.9-4.1,3.9H110.8c-2.3,0-3.8-1.7-3.8-3.9V102.9"/>
	<path class="st0" d="M133.9,417c4.4,4.4,9.4,8.2,14.7,11.3c1,0.6,1.3,1.8,0.8,2.8c-0.4,0.7-1.1,1-1.8,1c-0.4,0-0.7-0.1-1-0.3
		c-5.7-3.3-10.9-7.3-15.6-12c-0.8-0.8-0.8-2.1,0-3C131.7,416.1,133,416.1,133.9,417"/>
	<path class="st0" d="M111,364.4c1.1,0,2,0.9,2,2.1v0.2c0,15.8,5.1,30.8,14.7,43.4c0.7,0.9,0.5,2.2-0.4,2.9
		c-0.4,0.3-0.8,0.4-1.3,0.4c-0.6,0-1.2-0.3-1.6-0.8c-10.2-13.3-15.5-29.1-15.5-45.9v-0.2C109,365.3,109.9,364.4,111,364.4"/>
	<path class="st0" d="M221,305.2c-0.3,0-0.7-0.1-1-0.3c-10.8-6.3-23.1-9.6-35.7-9.6c-3.1,0-6.2,0.2-9.2,0.6
		c-1.1,0.1-2.2-0.7-2.3-1.8c-0.2-1.1,0.7-2.2,1.8-2.3c3.2-0.4,6.5-0.6,9.7-0.6c13.3,0,26.4,3.5,37.8,10.2c1,0.6,1.3,1.8,0.8,2.8
		C222.4,304.9,221.7,305.2,221,305.2"/>
	<path class="st0" d="M243.8,323.7c-0.4,0.3-0.8,0.4-1.3,0.4c-0.6,0-1.2-0.3-1.7-0.8c-1.9-2.5-4-4.8-6.1-7c-0.8-0.8-0.8-2.1,0-2.9
		c0.8-0.8,2.1-0.8,3,0c2.3,2.3,4.5,4.8,6.5,7.4C244.8,321.7,244.7,323,243.8,323.7"/>
	<path class="st0" d="M165.9,297.7c-6,1.6-11.8,4-17.2,7.1c-0.3,0.2-0.7,0.3-1,0.3c-0.7,0-1.4-0.4-1.8-1c-0.6-1-0.2-2.3,0.8-2.8
		c5.7-3.3,11.8-5.8,18.2-7.5c1.1-0.3,2.3,0.4,2.5,1.5C167.7,296.3,167,297.4,165.9,297.7"/>
	<path class="st0" d="M115.5,348c-0.3,0.9-1.1,1.5-2,1.5c-0.2,0-0.4,0-0.5-0.1c-1.1-0.3-1.8-1.4-1.5-2.5c0.8-3.2,1.9-6.3,3.2-9.3
		c0.4-1.1,1.7-1.6,2.7-1.1c1.1,0.4,1.6,1.7,1.1,2.7C117.3,342,116.3,345,115.5,348"/>
	<path class="st0" d="M219.8,428.3c13.5-7.8,24.3-20,30.2-34.4c0.4-1.1,1.6-1.6,2.7-1.1c1.1,0.4,1.6,1.7,1.1,2.7
		c-6.3,15.2-17.7,28.1-32,36.4c-0.3,0.2-0.7,0.3-1,0.3c-0.7,0-1.4-0.4-1.8-1C218.5,430.2,218.8,428.9,219.8,428.3"/>
	<path class="st0" d="M253.1,385.1c1.6-6,2.4-12.2,2.4-18.4c0-0.6,0.2-1.1,0.6-1.5c0.4-0.4,0.9-0.6,1.5-0.6c1.2,0,2.1,0.9,2.1,2.1
		c0,6.6-0.9,13.2-2.6,19.5c-0.3,0.9-1.1,1.5-2,1.5c-0.2,0-0.4,0-0.5-0.1C253.4,387.4,252.8,386.2,253.1,385.1"/>
	<path class="st0" d="M193.5,437.2c3.1-0.4,6.2-1,9.1-1.8c1.1-0.3,2.3,0.4,2.5,1.5c0.3,1.1-0.4,2.3-1.5,2.6
		c-3.2,0.8-6.4,1.5-9.7,1.9c-0.1,0-0.2,0-0.3,0c-1,0-1.9-0.8-2.1-1.8C191.6,438.4,192.4,437.4,193.5,437.2"/>
	<path class="st0" d="M661.5,425.2c12.9,8.9,28.3,13.4,44,12.6c1.1-0.1,2.1,0.8,2.2,2c0,1.1-0.8,2.1-2,2.2c-1.2,0.1-2.4,0.1-3.6,0.1
		c-15.4,0-30.3-4.6-43-13.4c-1-0.7-1.2-2-0.5-2.9C659.2,424.8,660.5,424.5,661.5,425.2"/>
	<path class="st0" d="M698.6,295.4c-3.1,0.1-6.2,0.5-9.3,1.1c-0.1,0-0.3,0-0.4,0c-1,0-1.9-0.7-2-1.7c-0.2-1.1,0.5-2.2,1.7-2.4
		c3.2-0.6,6.5-1,9.8-1.1c1.2,0,2.1,0.8,2.2,2C700.7,294.4,699.8,295.4,698.6,295.4"/>
	<path class="st0" d="M633.7,339.9c1.1,0.4,1.6,1.6,1.3,2.7c-2.1,5.9-3.4,12-3.9,18.2c-0.1,1.1-1,1.9-2.1,1.9c-0.1,0-0.1,0-0.2,0
		c-1.1-0.1-2-1.1-1.9-2.2c0.5-6.6,2-13,4.2-19.2C631.5,340.1,632.6,339.5,633.7,339.9"/>
	<path class="st0" d="M714.8,436.7c6.1-1.1,12.1-3,17.7-5.7c1-0.5,2.3,0,2.8,1c0.5,1,0,2.3-1,2.8c-6,2.8-12.3,4.9-18.7,6
		c-0.1,0-0.3,0-0.4,0c-1,0-1.9-0.7-2-1.7C712.9,438,713.6,436.9,714.8,436.7"/>
	<path class="st0" d="M639.3,404.6c1-0.6,2.3-0.3,2.9,0.6c1.7,2.6,3.5,5.1,5.5,7.5c0.7,0.9,0.6,2.2-0.2,2.9
		c-0.4,0.3-0.9,0.5-1.3,0.5c-0.6,0-1.2-0.3-1.6-0.7c-2.1-2.5-4.1-5.2-5.9-7.9C638,406.5,638.3,405.2,639.3,404.6"/>
	<path class="st0" d="M635,332.1c7.6-14.9,19.7-26.5,34.9-33.7l0.9,1.9l-0.9-1.9c1-0.5,2.3-0.1,2.8,1c0.5,1,0.1,2.3-1,2.8
		c0,0-0.1,0-0.1,0c-14.3,6.8-25.7,17.8-32.9,31.8c-0.4,0.7-1.1,1.1-1.8,1.1c-0.3,0-0.6-0.1-1-0.2C634.9,334.4,634.5,333.2,635,332.1
		"/>
	<path class="st0" d="M742.1,305.2c0.6-1,2-1.2,2.9-0.5c5.4,3.8,10.3,8.2,14.6,13.2c0.7,0.9,0.6,2.2-0.3,2.9
		c-0.4,0.3-0.9,0.5-1.3,0.5c-0.6,0-1.2-0.3-1.6-0.7c-4-4.8-8.6-9-13.8-12.5C741.7,307.4,741.5,306.1,742.1,305.2"/>
	<path class="st0" d="M762.6,325.2c1-0.6,2.3-0.3,2.9,0.6c1.8,2.7,3.3,5.6,4.8,8.6c4.8,10.2,7.3,21,7.3,32.2c0,2.1-0.1,4.2-0.3,6.3
		c-0.1,1.1-1,1.9-2.1,1.9c-0.1,0-0.1,0-0.2,0c-1.1-0.1-2-1.1-1.9-2.3c0.2-2,0.3-4,0.3-5.9c0-10.6-2.3-20.8-6.9-30.4
		c-1.3-2.8-2.8-5.5-4.5-8.1C761.3,327.1,761.6,325.8,762.6,325.2"/>
	<path class="st0" d="M769.1,390.6c0.4-1.1,1.6-1.6,2.7-1.3c1.1,0.4,1.6,1.6,1.3,2.7c-1.1,3.1-2.4,6.1-3.9,9.1
		c-0.4,0.7-1.1,1.1-1.8,1.1c-0.3,0-0.6-0.1-1-0.2c-1-0.5-1.4-1.8-0.9-2.8C766.8,396.4,768.1,393.6,769.1,390.6"/>
	<path class="st0" d="M628.7,234.8h5.6c1.1,0,2.1,0.9,2.1,2c0,1.2-0.9,2-2.1,2h-5.6c-1.2,0-2.1-0.8-2.1-2
		C626.6,235.6,627.6,234.8,628.7,234.8"/>
	<path class="st0" d="M644.8,234.8h52c1.2,0,2.1,0.9,2.1,2c0,1.2-0.9,2-2.1,2h-52c-1.1,0-2.1-0.8-2.1-2
		C642.7,235.6,643.6,234.8,644.8,234.8"/>
	<path class="st0" d="M696.8,229.8h-5.6c-1.1,0-2.1-0.8-2.1-2c0-1.1,0.9-2,2.1-2h5.6c1.2,0,2.1,0.9,2.1,2
		C698.8,228.9,697.9,229.8,696.8,229.8"/>
	<path class="st0" d="M628.7,225.8h52c1.2,0,2.1,0.9,2.1,2c0,1.2-0.9,2-2.1,2h-52c-1.2,0-2.1-0.8-2.1-2
		C626.6,226.6,627.6,225.8,628.7,225.8"/>
	<path class="st0" d="M2.4,99.8c-1.2,0-2.4,0.9-2.4,2.1l0,170.4c0,1.1,1.2,2.5,2.4,2.5h11.5h0h0h11.8h0h0H62c1.1,0,2-1.4,2-2.5
		v-47.5h5v86H38.7c-4,0-7.7,3.1-7.7,7.1v32.8c0,4,3.7,7.2,7.7,7.2h41.2c4,0,7.1-3.2,7.1-7.2v-3.9c3-2.1,6.3-5.9,8.7-9.9h6.8
		c-3.8,9-5.8,20.2-5.8,31c0,47.8,38.9,86.5,86.7,86.5s86.7-38.8,86.7-86.6c0-10.8-1.9-21.9-5.8-30.9h8.3L279,350v12.2
		c0,4,2.8,7.5,6.8,7.5l299.6,0c4,0,7.5-3.6,7.5-7.6v-0.9c9-4.3,16-15.5,20.1-24.5h8.4c-3.6,9-5.5,19.7-5.5,30.1
		c0,47.8,38.9,86.5,86.7,86.5s86.7-38.8,86.7-86.6c0-10.5-1.8-21.1-5.5-30.1h7.5c4.3,5,9.6,8.6,14.6,10.7v3.1c0,4,3.3,7.2,7.3,7.2
		h41.2c4,0,7.5-3.2,7.5-7.2v-32.8c0-4-3.5-7-7.5-7H829v-32h10.9c1.2,0,2.1-0.8,2.1-1.9v-45.2c0-1.1-0.9-1.9-2.1-1.9H829v-30v-0.5
		c0-3-1.7-5.8-3.8-8c-2.7-2.7-6.1-4.2-9.8-4.3L587,185.4L542.2,77.6c0,0,0,0-0.1-0.1c-1.5-3.9-3.2-6.8-5.3-9c-2.6-2.8-6-4.2-9.7-4.3
		L513,64.1V49.5c4,0.2,7.1,0.4,10.3,0.6c21.5,1.4,37.3,2.3,45.3,2.3c4.2,0,7.9,0,8.2-2.8c0.1-0.6-0.1-1.3-0.6-1.9
		c-3-3.5-43.8-9.8-80.5-13.9c-41.3-4.6-107-10.2-184.9-10.2h-6.1c-65.3,0-121.8,4-158.3,7.4C139.5,13,123.8,0,117.8,0
		c-2.1,0-3.6,0.7-4.4,1.9c-1.5,2.4,0.1,5.6,2.7,10.9c2.6,5.2,6.1,12.3,7.5,20.7c-22.2,2.4-43.1,5.2-59.1,8
		c-23.5,4-24.8,5.7-25.4,6.4c-0.4,0.5-0.6,1.2-0.5,1.8c0.3,2.7,3.9,2.7,8.1,2.7c8,0,23.6-1,45.2-2.4c6-0.4,13.3-0.8,19.3-1.2v9.4
		l-27.2-0.4C75.4,57.8,69,64.6,69,73v5.4v2.1v69.3h-5v-47.9c0-1.1-0.9-2.1-2-2.1H2.4 M79.9,310.8H73v-107h206v59.2l0,0.6l25.5,63.3
		H409v-123h13v124l159,0v-124h244v27.9v0v45.2v0v33.9h-11.7c-1.7,0-3.3,0.5-4.6,1.5c-1.6,1.3-2.8,3.3-2.8,5.5v3.6l-25.3-54.8
		c-5.3-12-17.2-19.9-30.3-19.9H645.6c-14.1,0-26.7,9-31.4,22.3L596,321.6c-1.3,3.6-2.9,7.2-4.8,10.2l-298.9,0l-28.5-65.2
		c-5.3-12.1-17.2-19.8-30.4-19.8H128.7c-14.1,0-26.7,9.1-31.4,22.4l-14.6,42v0c0,0,0,0,0,0c-0.2-0.1-0.4-0.2-0.7-0.3
		c0,0,0-0.1,0-0.1h0H79.9z M296.3,341.8l-2.2-5l294.3,0c-1.2,1-2.6,3-4,5L296.3,341.8z M426,89.8h110l41,106.8v3.2H426V89.8z
		 M283,89.8h121v110H283V89.8z M404,321.8h-96.8L283,262.1v-58.4h121V321.8z M577,323.8l-151,0v-120h151V323.8z M73,80.8h40.5h2.1
		h5.9h2.1H237h2.1h5.9h2.1h130.6h2.1h5.9h2.1h113.4h2.1h5.9h2.1h27.6L584,187.8v11.9h-3v-3.9l-0.2-0.2L538.9,85.8H422v114h-13v-114
		H279v114H73V80.8z M499,76.8H390V66.5l109,1.6V76.8z M386,76.8h-6v-12h6V76.8z M376,76.8H249V64.4l127,1.9V76.8z M245,76.8h-6v-14
		h6V76.8z M235,76.8H126V62.6l109,1.6V76.8z M111,62.4v14.4H73V73c0-6.1,4.8-11.2,10.9-11.2h0.2L111,62.4z M116,58.3v-8.5h6v8.6
		v18.4h-6V58.3z M117.8,4.4c2.9,0,17.1,10.2,23.9,27.3c-4.8,0.5-9.4,0.9-13.8,1.4c-1.5-9.2-5.2-16.6-7.9-22.2
		c-1.2-2.4-2.6-5.2-2.8-6.4C117.4,4.4,117.6,4.4,117.8,4.4 M523.8,45.7c-46.6-3-124.6-7.9-211.8-7.9h-8.9
		c-48.3,0-99.4,1.5-156.1,4.6c-7.3,0.4-14.4,0.8-21.1,1.2c-12.6,0.8-24.2,1.5-34.3,2.1c-16.1,1-28.8,1.8-37.5,2.2
		c13.7-2.7,38.5-6.6,72.1-10.2c5.8-0.6,12-1.3,18.5-1.9c0.1,0,0.2-0.1,0.4-0.1c36.3-3.4,93.4-7.8,159.4-7.8h6.1
		c119.8,0,217,13.3,250.2,19.9C552.2,47.3,539.7,46.7,523.8,45.7 M312,42.2c73.2,0,140,3.5,187,6.4v15.3l-109.2-1.4
		c0-1.1-0.9-1.8-2-1.8h-10.1c-1,0-1.9,0.7-2.1,1.7l-126.4-1.9c0-1.1-1-1.7-2.1-1.7H237c-1,0-1.8,0.5-1.9,1.5L126,58.4V48
		c0,0,0.2,0,0.4,0c6.7-0.4,13.6-0.8,20.9-1.2c56.6-3.1,107.6-4.6,155.8-4.6l4.5,0L312,42.2 M509,64.1v12.7h-6V64V49.8h6V64.1z
		 M533.9,71.7c1.2,1.2,2.3,3.1,3.2,5.1H513v-8.5l14.1,0.3C529.6,68.6,532,69.7,533.9,71.7 M822.4,194.5c1.4,1.4,2.3,3.3,2.7,5.3H588
		v-10.2l227.5,1.8C818.1,191.3,820.5,192.5,822.4,194.5 M838,274.8h-9v-41h9V274.8z M813.3,353.8c-1.7,0-3.3-1.5-3.3-3.2v-1.8v-30.9
		c0-0.9,0.5-1.7,1.2-2.3c0.5-0.5,1.4-0.8,2.2-0.8h41.2c1.7,0,3.5,1.4,3.5,3v32.8c0,1.7-1.8,3.2-3.5,3.2H813.3 M620.1,366.6
		c0-11,2.1-21.6,6.3-31.6c12.8-30.9,42.8-50.9,76.3-50.9s63.4,20,76.3,50.9c4.2,10,6.3,20.6,6.3,31.6c0,45.5-37,82.5-82.5,82.5
		S620.1,412.1,620.1,366.6 M614.8,331.8c0.3,0,0.5-1.3,0.7-1.9c0,0,0,0.2,0,0.1c0-0.1,0.1-0.3,0.1-0.4c0,0,0,0,0,0
		c0-0.1,0.1-0.2,0.1-0.2c0,0,0,0,0,0c0,0,0,0,0,0c0.1-0.2,0.1-0.4,0.2-0.5c0,0,0,0,0-0.1c0,0,0,0,0,0c0,0,0,0,0,0l17.9-50.4
		c3.3-9.4,12.2-15.5,22.1-15.5h85.7c9.3,0,17.7,5.3,21.4,13.8l16.7,37.7l4.3,9.9c0,0,0,0,0,0c0.2,0.6,1.5,3.6,3.9,7.5c0,0,0,0,0.1,0
		c0.1,0.1,0.1,0.2,0.2,0.2h-6.1c-0.6-1-1.3-2.8-2-4.2c-0.2-0.4-0.4-0.5-0.5-0.9c-0.1-0.2-0.2-0.4-0.3-0.7c-0.3-0.5-0.5-1-0.8-1.4
		c-0.6-1-1.2-2.1-1.8-3.1c-0.2-0.4-0.4-0.7-0.7-1.1c-0.9-1.4-1.8-2.8-2.8-4.1c-0.3-0.4-0.5-0.8-0.8-1.2c-0.7-0.9-1.4-1.8-2.1-2.7
		c-0.3-0.4-0.6-0.7-0.9-1.1c-1.6-2-3.3-3.8-5-5.6c-0.3-0.3-0.6-0.6-0.9-0.9c-0.4-0.4-0.7-0.7-1.1-1.1c-0.3-0.3-0.7-0.6-1-0.9
		c-0.4-0.4-0.9-0.8-1.3-1.2c-0.4-0.3-0.7-0.6-1.1-1c-0.9-0.7-1.7-1.4-2.6-2.1c-0.4-0.3-0.7-0.6-1.1-0.9c-0.4-0.3-0.8-0.6-1.2-0.9
		c-0.4-0.3-0.8-0.6-1.3-0.9c-0.4-0.3-0.8-0.6-1.2-0.9c-0.4-0.3-0.9-0.6-1.3-0.9c-0.4-0.3-0.8-0.5-1.2-0.8c-0.9-0.6-1.8-1.1-2.7-1.7
		c-0.4-0.3-0.9-0.5-1.3-0.8c-0.3-0.2-0.6-0.3-0.9-0.5c-0.4-0.2-0.9-0.5-1.3-0.7c-1.1-0.6-2.2-1.1-3.3-1.6c-0.4-0.2-0.9-0.4-1.3-0.6
		c-0.8-0.4-1.7-0.7-2.5-1.1c-0.4-0.2-0.8-0.3-1.3-0.5c-0.3-0.1-0.6-0.2-0.9-0.3c-0.4-0.2-0.8-0.3-1.2-0.4c-2.1-0.8-4.2-1.4-6.3-2
		c-0.4-0.1-0.8-0.2-1.2-0.3c-0.7-0.2-1.4-0.4-2.1-0.5c-0.3-0.1-0.6-0.1-0.9-0.2c-0.5-0.1-1-0.2-1.5-0.3c-2.5-0.5-5.1-0.9-7.7-1.2
		c-0.5-0.1-0.9-0.1-1.4-0.1c-0.1,0-0.3,0-0.4,0c-0.8-0.1-1.5-0.1-2.3-0.2c-0.7-0.1-1.4-0.1-2.1-0.1c-0.2,0-0.4,0-0.6,0c-1,0-2,0-3,0
		s-2,0-3,0c-0.2,0-0.4,0-0.6,0c-0.7,0-1.4,0.1-2.1,0.1c-0.8,0-1.5,0.1-2.3,0.2c-0.1,0-0.3,0-0.4,0c-0.5,0-1,0.1-1.4,0.1
		c-2.6,0.3-5.2,0.7-7.7,1.2c-0.5,0.1-1,0.2-1.5,0.3c-0.3,0.1-0.6,0.1-0.9,0.2c-0.7,0.2-1.4,0.4-2.1,0.5c-0.4,0.1-0.8,0.2-1.2,0.3
		c-2.1,0.6-4.3,1.3-6.3,2c-0.4,0.1-0.8,0.3-1.2,0.4c-0.3,0.1-0.6,0.2-0.9,0.3c-0.4,0.2-0.8,0.3-1.3,0.5c-0.9,0.4-1.7,0.7-2.5,1.1
		c-0.4,0.2-0.9,0.4-1.3,0.6c-1.1,0.5-2.2,1.1-3.3,1.6c-0.5,0.2-0.9,0.5-1.3,0.7c-0.3,0.2-0.6,0.3-0.9,0.5c-0.5,0.3-0.9,0.5-1.3,0.8
		c-0.9,0.5-1.8,1.1-2.7,1.7c-0.4,0.3-0.8,0.5-1.2,0.8c-0.9,0.6-1.7,1.2-2.6,1.8c-0.4,0.3-0.8,0.6-1.2,0.9c-0.5,0.3-0.9,0.7-1.4,1
		c-0.3,0.3-0.7,0.5-1,0.8c-2.7,2.1-5.3,4.4-7.7,6.9c-0.4,0.4-0.7,0.8-1.1,1.1c-0.4,0.4-0.7,0.8-1.1,1.2c-0.4,0.4-0.7,0.8-1.1,1.2
		c-0.4,0.4-0.7,0.8-1,1.2c-0.3,0.4-0.7,0.8-1,1.2c-0.3,0.4-0.7,0.8-1,1.2c-0.3,0.4-0.7,0.8-1,1.3c-0.3,0.4-0.6,0.8-1,1.3
		c-0.3,0.4-0.6,0.9-0.9,1.3c-0.6,0.9-1.2,1.7-1.8,2.6c-0.3,0.4-0.6,0.9-0.9,1.3c-0.2,0.4-0.5,0.7-0.7,1.1c-0.3,0.6-0.7,1.1-1,1.7
		c-0.5,0.9-1.1,1.9-1.6,2.8c-0.5,1-1,1.9-1.5,2.9c-0.2,0.4-0.4,0.8-0.6,1.3c-0.3,0.6-0.6,1.7-0.8,1.7H614.8z M591.8,344.9
		c-0.6-1-1.6-2.2-2.6-2.2h0c4.7-6,8.3-12.5,10.8-19.5l18.3-52.8c4.1-11.7,15.1-19.7,27.4-19.7h104.7c11.5,0,21.9,7,26.5,17.6
		l29.1,63V343c-4-2-8.4-5.4-12-10.1c-0.1-0.1-0.1-0.2-0.1-0.3c-0.2-0.3-0.5-0.6-0.7-1c-0.2-0.3-0.4-0.6-0.7-0.9c0,0,0-0.1-0.1-0.1
		c-0.2-0.2-0.3-0.5-0.5-0.7c-0.1-0.1-0.2-0.3-0.2-0.4c-0.1-0.2-0.2-0.3-0.3-0.5c-0.2-0.3-0.4-0.6-0.5-0.9c-0.2-0.3-0.3-0.6-0.5-0.9
		c-0.1-0.2-0.3-0.4-0.4-0.7c-0.1-0.1-0.1-0.2-0.2-0.3c-0.1-0.2-0.2-0.4-0.3-0.6c-0.1-0.1-0.1-0.2-0.1-0.3c0-0.1-0.1-0.1-0.1-0.2
		c-0.1-0.2-0.2-0.4-0.3-0.5c-0.1-0.2-0.2-0.4-0.3-0.6c0,0,0,0,0,0c-0.1-0.1-0.1-0.2-0.2-0.4c0,0,0,0,0,0c-0.1-0.1-0.1-0.2-0.2-0.3
		c0-0.1-0.1-0.1-0.1-0.2c-0.1-0.1-0.1-0.2-0.2-0.3c0,0-0.1,0-0.1,0v0c0-0.1,0-0.2,0-0.3c0-0.1,0-0.1,0-0.1l0-0.1l-21-48
		c-4.4-10-14.3-16.7-25.2-16.7H656c-10.6,0-20.1,6.3-24.7,15.6c-0.5,1-1,2.2-1.3,3.3l-8.1,23l-9.7,27.5c0,0,0,0.2-0.1,0.5
		c-0.1,0.2-0.1,0.6-0.3,0.9c-0.4,1.1-0.7,2.8-1.7,4.8v0c-3,6.9-9,18.3-17,23.2v-8.1C593,347.1,592.5,346.1,591.8,344.9 M283,348.5
		c0-1.7,1.2-2.7,2.8-2.7l299.6,0c1.1,0,2.3,0.4,2.9,1.3c0.3,0.5,0.7,0.9,0.7,1.4v13.7c0,1.7-1.8,3.6-3.5,3.6l-299.6,0
		c-1.7,0-2.8-1.9-2.8-3.5V348.5z M183.4,450c-45.5,0-82.6-37-82.6-82.5c0-11,2.1-21.6,6.3-31.6c12.8-30.9,42.8-50.9,76.3-50.9
		c33.5,0,63.4,20,76.3,50.9c4.2,10,6.3,20.6,6.3,31.6C265.9,412.9,228.9,450,183.4,450 M97.8,331.8c2.5-5,4.1-10.2,4.4-11.3
		l14.8-42.2c3.3-9.4,12.2-15.5,22.1-15.5h85.7c9.3,0,17.7,5.1,21.4,13.6l24.5,55.4h-7.5c-13.8-31-44.8-52.2-79.6-52.2
		c-34.7,0-65.8,21.2-79.6,52.2H97.8z M98.1,319.3C96.7,324.2,92,336,87,341.4v-23.5c0-0.2,0-0.5,0-0.7c0-0.2,0-0.3,0-0.5
		c0,0,0,0,0-0.1c0,0,0,0,0,0c0,0,0,0,0,0c0-0.2-0.1-0.4-0.1-0.6c0-0.2-0.1-0.3-0.1-0.5c0-0.1-0.1-0.2-0.1-0.3
		c-0.1-0.1-0.1-0.3-0.2-0.4c-0.1-0.2-0.2-0.4-0.3-0.6l15.2-43.6c4.1-11.7,15.1-19.7,27.4-19.7h104.7c11.5,0,21.9,7.3,26.6,17.8
		l31.8,73.2h-6c-2.2,0-4.1,0.6-5.4,2.1L250,274.4c-4.4-10-14.3-16.7-25.2-16.7H139c-11.7,0-22.2,7.6-26,18.7L98.1,319.3 M36,317.8
		c0-1.7,1-3.1,2.7-3.1h41.2c0.5,0,1,0.1,1.5,0.4c0.3,0.2,0.7,0.4,1,0.7c0.4,0.5,0.7,1.2,0.7,1.9v15.9v16.8c0,1.7-1.5,3.2-3.1,3.2
		H38.7c-1.7,0-2.7-1.5-2.7-3.2V317.8 M64,220.8v-67h5v46v21H64z M4,103.8h32v55.6c0,1.1,0.9,2.1,2,2.1c1.1,0,2-0.9,2-2.1v-55.6h8
		v106.7c0,1.1,0.9,2.1,2,2.1c1.1,0,2-0.9,2-2.1V103.8h8v166H28v-9.5c0-1.1-0.9-2.1-2-2.1c-1.1,0-2,0.9-2,2.1v9.5h-8v-20.7
		c0-1.1-0.9-2.1-2-2.1c-1.1,0-2,0.9-2,2.1v20.7H4V103.8z"/>
	<path class="st0" d="M92.9,235.8h20.8c1.1,0,2.1,0.9,2.1,2c0,1.2-0.9,2-2.1,2H92.9c-1.1,0-2.1-0.8-2.1-2
		C90.8,236.6,91.8,235.8,92.9,235.8"/>
	<path class="st0" d="M124.1,235.8h52c1.2,0,2.1,0.9,2.1,2c0,1.2-0.9,2-2.1,2h-52c-1.1,0-2.1-0.8-2.1-2
		C122,236.6,123,235.8,124.1,235.8"/>
	<path class="st0" d="M210.8,217.8h52c1.2,0,2.1,0.9,2.1,2c0,1.2-0.9,2-2.1,2h-52c-1.1,0-2.1-0.8-2.1-2
		C208.7,218.6,209.6,217.8,210.8,217.8"/>
	<path class="st0" d="M177.5,219.8c0-1.1,0.9-2,2.1-2h20.8c1.2,0,2.1,0.9,2.1,2c0,1.2-0.9,2-2.1,2h-20.8
		C178.4,221.8,177.5,220.9,177.5,219.8"/>
	<path class="st0" d="M510.4,314.8h52c1.2,0,2.1,0.9,2.1,2s-0.9,2-2.1,2h-52c-1.1,0-2.1-0.9-2.1-2S509.2,314.8,510.4,314.8"/>
	<path class="st0" d="M479.2,314.8H500c1.1,0,2.1,0.9,2.1,2s-0.9,2-2.1,2h-20.8c-1.1,0-2.1-0.9-2.1-2S478,314.8,479.2,314.8"/>
	<path class="st0" d="M316.5,314.8h52c1.2,0,2.1,0.9,2.1,2c0,1.2-0.9,2-2.1,2h-52c-1.1,0-2.1-0.8-2.1-2
		C314.4,315.6,315.4,314.8,316.5,314.8"/>
	<path class="st0" d="M378.9,314.8h17.3c1.1,0,2.1,0.9,2.1,2c0,1.2-0.9,2-2.1,2h-17.3c-1.1,0-2.1-0.8-2.1-2
		C376.8,315.6,377.8,314.8,378.9,314.8"/>
</g>
</svg>
