<?xml version="1.0" encoding="utf-8"?>
<!-- Generator: Adobe Illustrator 19.1.0, SVG Export Plug-In . SVG Version: 6.00 Build 0)  -->
<svg version="1.1" id="Layer_1" xmlns="http://www.w3.org/2000/svg" xmlns:xlink="http://www.w3.org/1999/xlink" x="0px" y="0px"
	 viewBox="0 0 105.3 90.9" style="enable-background:new 0 0 105.3 90.9;" xml:space="preserve">
<style type="text/css">
	.st0{clip-path:url(#SVGID_2_);fill-rule:evenodd;clip-rule:evenodd;fill:#FFFFFF;}
</style>
<g>
	<defs>
		<rect id="SVGID_1_" y="0" width="105.3" height="90.9"/>
	</defs>
	<clipPath id="SVGID_2_">
		<use xlink:href="#SVGID_1_"  style="overflow:visible;"/>
	</clipPath>
	<path class="st0" d="M83.7,12.1C88.6,3.7,96,0,101.4,0c9.3,0,0.5,14.9-11.1,14.1c-0.9-0.1-1.1-0.1,0-0.2c0.2,0,0.5,0,0.8-0.1
		c3.3-0.2,7.7-2.3,9.3-5.5c4-7.5-7.7-6.9-14.2,4.1L66.8,45.5l8.6-0.6l0,0l7.7-0.6c0,0-0.1-0.1-0.1-0.2l-7.1-0.5l6-16.3
		c0.4-1.5,1.8-2.9,3.3-3.3c1.5-0.4,2.8,0.3,3.1,1.6L88,28.3h4.2v0.5H88l-1.3,13.8c1.6,0.1,2.8,0.6,2.8,1.2l2.9,0
		c1.5-0.1,2.3,1,2.3,2.4c0.5,0.2,0.8,0.5,0.8,0.8c0,0.4-0.5,0.7-1.2,1c-0.7,1.7-2.2,2.9-3.9,2.9l-5.7,0l-7.2,16.6h4.8v0.5h-5
		l-0.5,1.3c-1,1.4-2.7,2.2-4.1,1.9s-2.1-1.6-1.7-3.1l3.1-17.7l-9.2-1.8l-8.3,14c-27.7,41.8-68.1,31.3-53.4,5.5
		C11.9,53,30.4,44.9,46.5,45.9c3,0.2,3.7,0.5,0,0.6c-0.8,0-1.7,0.1-2.9,0.2c-11.5,0.6-26.4,8.1-32.1,19.1C-1.8,91.6,33,95.7,55.2,59
		L83.7,12.1z M59.2,43h1.3c0.6,0,0.9,0.5,0.8,1.1l-0.5,1.8l0,0l-1.1,1.8l-0.1,0L58,50.4h-0.8c-0.6,0-0.9-0.5-0.8-1.1l0.6-2.1
		l-0.8-0.2l0.2-0.8l0.9-0.1l0.5-2C57.9,43.5,58.6,43,59.2,43 M94.5,40c2.1,0.4,3.1,4,2.2,8c-0.8,4-3.2,6.9-5.2,6.5
		c-1-0.2-1.7-1.1-2.1-2.4c0.4,0.8,0.9,1.3,1.6,1.5c1.8,0.4,3.9-2.2,4.6-5.7c0.7-3.5-0.1-6.7-1.9-7c-0.9-0.2-1.8,0.3-2.6,1.2
		C92,40.6,93.3,39.7,94.5,40"/>
</g>
</svg>
