<?xml version="1.0" encoding="utf-8"?>
<!-- Generator: Adobe Illustrator 19.1.0, SVG Export Plug-In . SVG Version: 6.00 Build 0)  -->
<svg version="1.1" id="Слой_1" xmlns="http://www.w3.org/2000/svg" xmlns:xlink="http://www.w3.org/1999/xlink" x="0px" y="0px"
	 viewBox="0 0 277.5 90.9" style="enable-background:new 0 0 277.5 90.9;" xml:space="preserve">
<style type="text/css">
	.st0{fill-rule:evenodd;clip-rule:evenodd;fill:#FFFFFF;}
	.st1{fill:#FFFFFF;}
</style>
<path class="st0" d="M83.7,12.1C88.6,3.7,96,0,101.4,0c9.3,0,0.5,14.9-11.1,14.1c-0.9-0.1-1.1-0.1,0-0.2c0.2,0,0.5,0,0.8-0.1
	c3.3-0.2,7.7-2.3,9.3-5.5c4-7.5-7.7-6.9-14.2,4.1L66.8,45.5l8.6-0.6l0,0l7.7-0.6c0,0-0.1-0.1-0.1-0.2l-7.1-0.5l6-16.3
	c0.4-1.5,1.8-2.9,3.3-3.3c1.5-0.4,2.8,0.3,3.1,1.6L88,28.3h4.2v0.5H88l-1.3,13.8c1.6,0.1,2.8,0.6,2.8,1.2l2.9,0
	c1.5-0.1,2.3,1,2.3,2.4c0.5,0.2,0.8,0.5,0.8,0.8c0,0.4-0.5,0.7-1.2,1c-0.7,1.7-2.2,2.9-3.9,2.9l-5.7,0l-7.2,16.6h4.8v0.5h-5
	l-0.5,1.3c-1,1.4-2.7,2.2-4.1,1.9c-1.4-0.3-2.1-1.6-1.7-3.1l3.1-17.7l-9.2-1.8l-8.3,14c-27.7,41.8-68.1,31.3-53.4,5.5
	C11.9,53,30.4,44.9,46.5,45.9c3,0.2,3.7,0.5,0,0.6c-0.8,0-1.7,0.1-2.9,0.2c-11.5,0.6-26.4,8.1-32.1,19.1C-1.8,91.6,33,95.7,55.2,59
	L83.7,12.1L83.7,12.1z M59.1,43h1.3c0.6,0,0.9,0.5,0.8,1.1l-0.5,1.8l0,0l-1.1,1.8l-0.1,0L58,50.4h-0.8c-0.6,0-0.9-0.5-0.8-1.1
	l0.6-2.1l-0.8-0.2l0.2-0.8l0.9-0.1l0.5-2C57.9,43.5,58.6,43,59.1,43L59.1,43z M94.5,40c2.1,0.4,3.1,4,2.2,8c-0.8,4-3.2,6.9-5.2,6.5
	c-1-0.2-1.7-1.1-2.1-2.4c0.4,0.8,0.9,1.3,1.6,1.5c1.8,0.4,3.9-2.2,4.6-5.7c0.7-3.5-0.1-6.7-1.9-7c-0.9-0.2-1.8,0.3-2.6,1.2
	C92,40.6,93.3,39.7,94.5,40L94.5,40z"/>
<path class="st0" d="M265.9,31.8h2c4,0,5.6,2.6,5.6,4.8c0,2.3-1.5,4.9-6.3,4.9c-0.5,0-0.9,0-1.3-0.1V31.8L265.9,31.8z M261.9,28.1
	v26.1l4-0.5v-8.6c0.6,0.1,1.2,0.1,1.7,0.1c6.6,0,9.9-4.3,9.9-8.6c0-4-2.8-8.6-9.6-8.6H261.9L261.9,28.1z"/>
<path class="st0" d="M234.6,41.1c0-5.1,3.9-9.9,9.9-9.9c5.9,0,9.9,4.8,9.9,9.9c0,5.4-4.3,9.8-9.9,9.8
	C238.9,51,234.6,46.5,234.6,41.1L234.6,41.1z M230.6,41.1c0,7.9,6.7,13.6,13.9,13.6c7.2,0,13.9-5.6,13.9-13.6
	c0-8.4-7.2-13.6-13.9-13.6C237.8,27.5,230.6,32.7,230.6,41.1L230.6,41.1z"/>
<polygon class="st0" points="219.1,31.8 219.1,54.3 223.1,53.8 223.1,31.8 228.8,31.8 228.8,28.1 213.5,28.1 212.4,31.8 219.1,31.8 
	"/>
<path class="st0" d="M201.6,35l3.6,7.4H198L201.6,35L201.6,35z M196.4,45.9h10.3l4.2,8.8l4-0.8l-13.3-26.7l-13.4,26.8l3.9,0.8
	L196.4,45.9L196.4,45.9z"/>
<polygon class="st0" points="168.8,27.7 164.8,28.1 164.8,55.3 182.1,36.5 182.1,54.3 186.1,53.8 186.1,26.9 168.8,45.6 168.8,27.7 
	"/>
<path class="st0" d="M147.1,42.5h3.9c3.2,0,4.6,2,4.6,3.9c0,2-1.6,3.9-4.9,3.9h-3.6V42.5L147.1,42.5z M147.1,31.8h3
	c3.1,0,4.6,1.6,4.6,3.6c0,1.9-1.5,3.7-4.2,3.7h-3.4V31.8L147.1,31.8z M143.1,28.1v25.9h7.5c5.8,0,9-3.1,9-7.4c0-3.2-2-5.2-4.4-6
	c2.3-1.2,3.4-3.4,3.4-5.7c0-2.7-1.7-6.9-9.2-6.9H143.1L143.1,28.1z"/>
<path class="st0" d="M126.9,35l3.6,7.4h-7.1L126.9,35L126.9,35z M121.8,45.9h10.3l4.2,8.8l4-0.8L127,27.1l-13.4,26.8l3.9,0.8
	L121.8,45.9L121.8,45.9z"/>
<path class="st1" d="M115.6,67.8h-1.4v10h1.4v-3.5l1.6-1.5l3.5,5h1.8l-4.3-6l4.2-4h-1.9l-4.9,4.9V67.8L115.6,67.8z M131.1,67.8v5
	c0,2.8-0.2,4.1-1.3,4.1c-0.3,0-0.5,0-0.6-0.1v1.1c0.3,0.1,0.6,0.1,0.9,0.1c1.4,0,2.3-1,2.3-4.8V69h3.8v8.8h1.4v-10H131.1L131.1,67.8
	z M152.7,67.8l-2.9,6.8l-3.1-6.8h-1.4l3.9,8.2c-0.5,0.8-0.6,1-1.1,1c-0.3,0-0.6,0-0.8-0.1V78c0.3,0.1,0.6,0.1,1,0.1
	c0.8,0,1.5-0.3,2.2-1.9l3.8-8.4H152.7L152.7,67.8z M161.8,67.8v10h4.7c1.8,0,3-1.2,3-2.8c0-1.4-0.8-3.1-3-3.1h-3.3V69h5.7v-1.2
	H161.8L161.8,67.8z M163.2,73.1h2.8c1.2,0,2.1,0.5,2.1,1.8c0,1.3-0.9,1.6-2,1.6h-2.9V73.1L163.2,73.1z M178.9,67.8h-1.4v10h1.4v-4.7
	h5.2v4.7h1.4v-10h-1.4v4.1h-5.2V67.8L178.9,67.8z M195.4,67.8H194v10h4.7c1.8,0,3-1.2,3-2.8c0-1.4-0.8-3.1-3-3.1h-3.3V67.8
	L195.4,67.8z M195.4,73.1h2.8c1.2,0,2.1,0.5,2.1,1.8c0,1.3-0.9,1.6-2,1.6h-2.9V73.1L195.4,73.1z M204.2,67.8h-1.4v10h1.4V67.8
	L204.2,67.8z M214.1,67.8h-1.4v10h1.6l5.1-8.1h0v8.1h1.4v-10h-1.5l-5.1,8.2h-0.1V67.8L214.1,67.8z M215.3,65.1h-0.7
	c0.1,0.5,0.2,1.9,2.1,1.9c1.8,0,2-1.4,2.1-1.9h-0.7c-0.2,0.6-0.5,1-1.4,1C215.7,66.2,215.5,65.7,215.3,65.1L215.3,65.1z M234.3,67.8
	V71c0,2.3-0.1,3.7-1,5.6h-0.8V80h1.2v-2.2h6.8V80h1.2v-3.4h-0.9v-8.8H234.3L234.3,67.8z M239.5,76.6h-4.9c0.9-1.7,1-3.2,1-5.4V69
	h3.9V76.6L239.5,76.6z M257.5,72.8c0,2.4-1.3,4.1-3.5,4.1c-2.2,0-3.5-1.7-3.5-4.1c0-2.4,1.3-4,3.5-4
	C256.2,68.7,257.5,70.4,257.5,72.8L257.5,72.8z M258.9,72.8c0-2.2-1.1-5.3-4.9-5.3c-3.7,0-4.9,3.1-4.9,5.3c0,2.2,1.1,5.3,4.9,5.3
	C257.8,78.1,258.9,75,258.9,72.8L258.9,72.8z M267,67.8v10h1.3v-5.9c0-0.3,0-1.6,0-2.5h0l2.8,8.4h1.3l2.8-8.4h0c0,0.9,0,2.2,0,2.5
	v5.9h1.3v-10h-1.9l-2.9,8.5h0l-2.8-8.5H267L267,67.8z"/>
</svg>
